<svg xmlns="http://www.w3.org/2000/svg" xmlns:xlink="http://www.w3.org/1999/xlink" viewBox="0 0 78.86 110.67"><defs><style>.cls-1{fill:#fff;}.cls-2{fill:url(#linear-gradient);}</style><linearGradient id="linear-gradient" x1="-6.01" y1="94.8" x2="80.86" y2="7.93" gradientUnits="userSpaceOnUse"><stop offset="0" stop-color="#ffc91e"/><stop offset="1" stop-color="#f05"/></linearGradient></defs><g id="Layer_2" data-name="Layer 2"><g id="Layer_1-2" data-name="Layer 1"><polygon class="cls-1" points="69.57 12.03 54.5 12.03 39.43 12.03 33.25 18.22 33.25 25.85 42.59 35.2 54.5 37.06 66.41 35.2 75.76 25.85 75.76 18.22 69.57 12.03"/><path class="cls-2" d="M8.34,95.05A70.17,70.17,0,0,1,0,99.52,39.2,39.2,0,0,0,5.39,92.1ZM78.28,54.41A25.29,25.29,0,0,1,73.49,66V44.92a6.43,6.43,0,0,0-6.42-6.42H42.86a6.38,6.38,0,0,0-4.54,1.88l-27.95,28c.09-1,.22-1.92.39-2.8C14.47,45.76,26.46,36.16,31.28,33a27.46,27.46,0,0,1-.55-5.9c.3-12.55,3.2-14.92,3.2-14.92s1.4,2.51,3.46,1.56c-3.48-2.14-6.3-4.93-6.66-8.41A11.37,11.37,0,0,0,42.19,3.83,19,19,0,0,1,54.5,0,19,19,0,0,1,66.81,3.83,11.39,11.39,0,0,0,78.28,5.35c-.37,3.48-3.19,6.27-6.67,8.41,2.06,1,3.46-1.56,3.46-1.56s2.9,2.37,3.2,14.92a33.15,33.15,0,0,1-3.81,15.13c.72-.19,1.68-.92,2.61-3.08C77.07,39.17,80.11,39.84,78.28,54.41ZM49.85,24.59c1.78-2.92,1.28-4.86,1-5.5-1-.24-2.37-.62-4-1.16A5.09,5.09,0,0,1,48,21.09,5.42,5.42,0,1,1,41.62,16c-.67-.3-1.34-.61-2-.95a7.71,7.71,0,0,0-3.85,7.75C36.66,28.65,46.92,29.37,49.85,24.59Zm4.65,0c-1,.11-3.78.59-3.61,2.48s2.64,6.28,3.61,8c1-1.69,3.44-6.11,3.61-8S55.54,24.68,54.5,24.57ZM69.38,15c-.66.34-1.33.65-2,.95a5.24,5.24,0,1,1-6.34,5.14,5.09,5.09,0,0,1,1.1-3.16c-1.64.54-3.06.92-4,1.16-.26.64-.76,2.58,1,5.5,2.93,4.78,13.18,4.06,14.07-1.84A7.71,7.71,0,0,0,69.38,15ZM9.68,96.39A89.7,89.7,0,0,1,8,108.77a61.19,61.19,0,0,0,7-7.07ZM70.81,44.92V69.13a3.75,3.75,0,0,1-1.09,2.65L31.94,109.57a3.74,3.74,0,0,1-5.3,0L2.44,85.36a3.74,3.74,0,0,1,0-5.29l37.77-37.8a3.75,3.75,0,0,1,2.65-1.09H67.07A3.75,3.75,0,0,1,70.81,44.92Zm-7.4,3.69a4.7,4.7,0,1,0,0,6.65A4.7,4.7,0,0,0,63.41,48.61Z"/></g></g></svg>