<svg xmlns="http://www.w3.org/2000/svg" xmlns:xlink="http://www.w3.org/1999/xlink" viewBox="0 0 365.62 365.62"><defs><style>.cls-1{fill:#efefef;}.cls-2{fill:#666;}.cls-3{fill:#fff;}.cls-4{fill:url(#linear-gradient);}</style><linearGradient id="linear-gradient" x1="60.8" y1="288.79" x2="294.06" y2="55.53" gradientUnits="userSpaceOnUse"><stop offset="0" stop-color="#ffc91e"/><stop offset="1" stop-color="#f05"/></linearGradient></defs><g id="Layer_2" data-name="Layer 2"><g id="Layer_1-2" data-name="Layer 1"><rect class="cls-1" x="2" y="2" width="361.62" height="361.62" rx="74.79"/><path class="cls-2" d="M288.83,4a72.87,72.87,0,0,1,72.79,72.79v212a72.87,72.87,0,0,1-72.79,72.79h-212A72.87,72.87,0,0,1,4,288.83v-212A72.87,72.87,0,0,1,76.79,4h212m0-4h-212A76.79,76.79,0,0,0,0,76.79v212a76.79,76.79,0,0,0,76.79,76.79h212a76.79,76.79,0,0,0,76.79-76.79v-212A76.79,76.79,0,0,0,288.83,0Z"/><polygon class="cls-3" points="263.75 66.53 223.28 66.53 182.81 66.53 166.2 83.14 166.2 103.65 191.29 128.74 223.28 133.74 255.26 128.74 280.36 103.65 280.36 83.14 263.75 66.53"/><path class="cls-4" d="M99.31,289.46a185.78,185.78,0,0,1-22.38,12C82.1,296.12,87,289.08,91.4,281.55ZM287.12,180.34c-1.44,11.45-6.11,21.85-12.85,31.22V154.85A17.26,17.26,0,0,0,257,137.6H192a17.14,17.14,0,0,0-12.2,5.06l-75.06,75.09c.27-2.64.61-5.16,1.06-7.53,10-53.13,42.16-78.9,55.12-87.33a71.08,71.08,0,0,1-1.49-15.83c.8-33.7,8.6-40.09,8.6-40.09s3.75,6.76,9.28,4.19C168,65.42,160.41,58,159.44,48.59c0,0,16.19,7.66,30.78-4.09s33.06-10.21,33.06-10.21,18.47-1.53,33,10.21,30.79,4.09,30.79,4.09c-1,9.36-8.54,16.83-17.89,22.57,5.52,2.57,9.28-4.19,9.28-4.19s7.8,6.39,8.59,40.09c.36,14.87-4.56,29.13-10.22,40.63,1.93-.51,4.51-2.47,7-8.29C283.87,139.4,292,141.2,287.12,180.34Zm-76.34-80.09c4.8-7.83,3.45-13,2.74-14.77-2.56-.64-6.36-1.67-10.79-3.1a13.61,13.61,0,0,1,3,8.47,14.56,14.56,0,1,1-17-13.8q-2.7-1.18-5.36-2.54c-4.45,2.84-12,9.47-10.34,20.81C175.37,111.15,202.91,113.09,210.78,100.25Zm12.5,0c-2.79.3-10.17,1.57-9.69,6.65s7.08,16.88,9.69,21.39c2.61-4.51,9.22-16.39,9.69-21.39S226.07,100.51,223.28,100.21Zm40-25.7c-1.77.9-3.57,1.75-5.36,2.54a14.06,14.06,0,1,1-17,13.8,13.61,13.61,0,0,1,3-8.47c-4.43,1.43-8.23,2.46-10.79,3.1-.71,1.73-2.06,6.94,2.74,14.77,7.87,12.84,35.41,10.9,37.8-4.93C275.29,84,267.69,77.35,263.24,74.51ZM102.92,293.08a240.85,240.85,0,0,1-4.59,33.23,165.84,165.84,0,0,0,18.83-19ZM267.08,154.85v65a10,10,0,0,1-2.95,7.1L162.69,328.45a10,10,0,0,1-14.21,0l-65-65a10.07,10.07,0,0,1,0-14.22L184.91,147.74A10,10,0,0,1,192,144.8h65A10.06,10.06,0,0,1,267.08,154.85Zm-19.88,9.92a12.61,12.61,0,1,0,0,17.84A12.61,12.61,0,0,0,247.2,164.77Z"/></g></g></svg>