<svg width="270" height="77" viewBox="0 0 270 77" fill="none" xmlns="http://www.w3.org/2000/svg">
<g filter="url(#filter0_d)">
<circle cx="36.5" cy="36.5" r="31" stroke="#DCE1EB" stroke-width="3"/>
</g>
<path d="M59.6503 28.7886L54.9559 23.778L44.9982 23.6525L25.2233 42.0067L39.3065 57.0386L59.0814 38.6844L59.6503 28.7886ZM50.1601 32.9131C49.0097 31.6853 49.1376 29.706 50.4458 28.4918C51.754 27.2776 53.7467 27.2886 54.897 28.5165C56.0474 29.7443 55.9195 31.7236 54.6113 32.9378C53.3031 34.152 51.3104 34.141 50.1601 32.9131Z" fill="white" stroke="url(#paint0_linear)" stroke-width="2"/>
<path d="M59.0752 38.7247L59.6738 28.8606L57.3258 26.3545L54.9191 28.5883C54.9248 28.5937 54.9303 28.5989 54.9354 28.6044C56.0785 29.8245 55.9446 31.7975 54.6365 33.0117C53.3283 34.2259 51.3415 34.2211 50.1984 33.0011C50.1933 32.9956 50.1885 32.9898 50.1834 32.9838L32.2876 49.5939L39.3003 57.0789L59.0752 38.7247Z" fill="#DCE1EB" stroke="url(#paint1_linear)" stroke-width="2"/>
<path d="M28.6476 46.6108L33.7036 42.1285L44.373 52.3617L39.317 56.8439L28.6476 46.6108Z" fill="#FFDA00" stroke="url(#paint2_linear)" stroke-width="2"/>
<path d="M31.3526 44.2994L33.7117 42.2476L44.2839 52.5815L41.9243 54.6337L31.3526 44.2994Z" fill="#FFBC36" stroke="url(#paint3_linear)" stroke-width="2"/>
<path d="M31.9914 43.3039C27.8853 47.115 21.1896 46.6106 17.0361 42.1773C12.8823 37.7436 12.8438 31.0603 16.9498 27.2492C21.0559 23.4381 27.7516 23.9425 31.9054 28.3761C36.059 32.8094 36.0975 39.4928 31.9914 43.3039Z" fill="#64E1DC" stroke="url(#paint4_linear)" stroke-width="2"/>
<path d="M32.0281 42.0437C35.9973 38.0903 35.7233 31.4124 31.4161 27.1282C29.2607 24.9843 26.5038 23.8461 23.7894 23.7394L24.6549 44.8331C27.3694 44.9433 30.0418 44.0221 32.0281 42.0437Z" fill="#00C8C8" stroke="url(#paint5_linear)" stroke-width="2"/>
<path d="M15.8765 42.7822C11.2284 37.8211 11.17 30.3293 15.7463 26.0818C20.3226 21.8343 27.8271 22.4148 32.4752 27.376C37.123 32.3368 37.1817 39.8289 32.6054 44.0764C28.0291 48.324 20.5245 47.7434 15.8765 42.7822ZM30.7458 28.9811C27.0661 25.0535 21.1254 24.5942 17.5028 27.9566C13.8802 31.3189 13.9261 37.2495 17.6058 41.1771C21.2853 45.1044 27.2262 45.564 30.8489 42.2016C34.4715 38.8393 34.4253 32.9084 30.7458 28.9811Z" fill="#00C8C8" stroke="url(#paint6_linear)" stroke-width="2"/>
<path d="M30.6087 28.7319C34.4166 32.5038 34.6715 38.4163 31.1768 41.9115C29.4278 43.6608 27.0659 44.4781 24.6656 44.3854L24.771 46.8373C27.8027 46.9542 30.7855 45.9216 32.9947 43.7121C37.4093 39.2968 37.087 31.8279 32.2769 27.0634C29.8698 24.679 26.788 23.4167 23.7567 23.3036L23.8621 25.7555C26.2626 25.845 28.7029 26.8442 30.6087 28.7319Z" fill="#1CADB5" stroke="url(#paint7_linear)" stroke-width="2"/>
<g filter="url(#filter1_d)">
<path d="M84.2098 17.544C85.5324 17.544 86.6418 17.096 87.5378 16.2C88.4764 15.304 88.9458 14.1947 88.9458 12.872C88.9458 11.5493 88.4764 10.44 87.5378 9.544C86.6418 8.648 85.5324 8.2 84.2098 8.2C82.9298 8.2 81.8418 8.648 80.9458 9.544C80.0498 10.44 79.6018 11.5493 79.6018 12.872C79.6018 14.1947 80.0498 15.304 80.9458 16.2C81.8418 17.096 82.9298 17.544 84.2098 17.544ZM88.4338 53V21.96H80.1138V53H88.4338ZM103.809 31.496C105.345 30.3867 106.753 29.512 108.033 28.872C109.313 28.1893 110.678 27.848 112.129 27.848C113.537 27.848 114.625 28.3813 115.393 29.448C116.203 30.5147 116.609 32.008 116.609 33.928V53H124.929V33.544C124.929 29.576 124.139 26.4827 122.561 24.264C120.982 22.0453 118.23 20.936 114.305 20.936C112.598 20.936 110.657 21.32 108.481 22.088C106.305 22.856 104.257 23.9227 102.337 25.288L100.929 21.96H95.4888V53H103.809V31.496ZM146.203 21.128C151.024 21.128 154.821 22.6 157.595 25.544C160.411 28.4453 161.819 32.392 161.819 37.384C161.819 40.6267 161.179 43.4853 159.899 45.96C158.661 48.4347 156.848 50.3547 154.459 51.72C152.069 53.0853 149.232 53.768 145.947 53.768C144.197 53.768 142.341 53.2773 140.379 52.296V66.376L132.123 67.016V21.96H136.347L138.011 24.072C140.528 22.1093 143.259 21.128 146.203 21.128ZM145.883 46.664C148.144 46.664 149.936 45.8107 151.259 44.104C152.581 42.3547 153.243 40.1147 153.243 37.384C153.243 34.6533 152.581 32.456 151.259 30.792C149.979 29.0853 148.187 28.232 145.883 28.232C144.091 28.232 142.256 28.8507 140.379 30.088V44.872C142.128 46.0667 143.963 46.664 145.883 46.664ZM175.246 34.056C177.038 32.4773 178.958 31.176 181.006 30.152C183.097 29.128 184.846 28.616 186.254 28.616L184.59 21.96C183.054 21.96 181.284 22.4933 179.278 23.56C177.273 24.6267 175.524 25.8213 174.03 27.144L171.278 21.96H166.926V53H175.246V34.056ZM194.522 17.544C195.845 17.544 196.954 17.096 197.85 16.2C198.789 15.304 199.258 14.1947 199.258 12.872C199.258 11.5493 198.789 10.44 197.85 9.544C196.954 8.648 195.845 8.2 194.522 8.2C193.242 8.2 192.154 8.648 191.258 9.544C190.362 10.44 189.914 11.5493 189.914 12.872C189.914 14.1947 190.362 15.304 191.258 16.2C192.154 17.096 193.242 17.544 194.522 17.544ZM198.746 53V21.96H190.426V53H198.746ZM231.145 24.392C229.695 23.4107 227.903 22.6213 225.769 22.024C223.636 21.4267 221.844 21.128 220.393 21.128C217.065 21.128 214.143 21.8107 211.625 23.176C209.151 24.4987 207.231 26.3973 205.865 28.872C204.543 31.3467 203.881 34.2267 203.881 37.512C203.881 40.7973 204.543 43.6773 205.865 46.152C207.231 48.584 209.151 50.4613 211.625 51.784C214.143 53.1067 217.065 53.768 220.393 53.768C221.972 53.768 223.828 53.4907 225.961 52.936C228.095 52.3813 229.823 51.592 231.145 50.568L228.777 44.552C227.156 45.2773 225.705 45.8107 224.425 46.152C223.145 46.4933 221.823 46.664 220.457 46.664C218.111 46.664 216.191 45.8107 214.697 44.104C213.204 42.3973 212.457 40.2 212.457 37.512C212.457 34.824 213.204 32.6053 214.697 30.856C216.233 29.1067 218.153 28.232 220.457 28.232C221.823 28.232 223.145 28.4027 224.425 28.744C225.705 29.0853 227.156 29.6187 228.777 30.344L231.145 24.392ZM263.829 37.384C263.829 34.3547 263.317 31.624 262.293 29.192C261.269 26.7173 259.69 24.7547 257.557 23.304C255.423 21.8533 252.799 21.128 249.685 21.128C246.485 21.128 243.711 21.8107 241.365 23.176C239.018 24.4987 237.205 26.3973 235.925 28.872C234.687 31.3467 234.069 34.2267 234.069 37.512C234.069 42.5893 235.583 46.5787 238.613 49.48C241.685 52.3387 246.165 53.768 252.053 53.768C254.57 53.768 256.746 53.448 258.581 52.808C260.415 52.1253 262.122 51.1653 263.701 49.928L261.269 43.912C259.69 44.808 258.218 45.4907 256.853 45.96C255.487 46.4293 253.951 46.664 252.245 46.664C249.301 46.664 247.103 46.088 245.653 44.936C244.245 43.784 243.327 42.12 242.901 39.944H263.829V37.384ZM242.965 34.376C243.306 32.3707 244.053 30.856 245.205 29.832C246.357 28.7653 247.786 28.232 249.493 28.232C251.199 28.232 252.586 28.744 253.653 29.768C254.762 30.792 255.53 32.328 255.957 34.376H242.965Z" fill="white"/>
</g>
<path d="M153.072 60.986C153.847 60.986 154.402 61.196 154.738 61.616C155.083 62.0267 155.256 62.6427 155.256 63.464V68H153.436V63.828C153.436 63.3893 153.366 63.058 153.226 62.834C153.095 62.61 152.885 62.498 152.596 62.498C152.316 62.498 152.059 62.5633 151.826 62.694C151.593 62.8247 151.294 63.0207 150.93 63.282V63.464V68H149.11V63.828C149.11 63.3893 149.04 63.058 148.9 62.834C148.769 62.61 148.559 62.498 148.27 62.498C147.99 62.498 147.733 62.5633 147.5 62.694C147.267 62.8247 146.963 63.0253 146.59 63.296V68H144.77V61.21H145.96L146.268 61.938C146.688 61.6393 147.122 61.406 147.57 61.238C148.018 61.07 148.41 60.986 148.746 60.986C149.67 60.986 150.295 61.294 150.622 61.91C151.042 61.6207 151.471 61.3967 151.91 61.238C152.349 61.07 152.736 60.986 153.072 60.986ZM163.299 64.584C163.299 65.3027 163.149 65.9327 162.851 66.474C162.552 67.0153 162.127 67.4353 161.577 67.734C161.035 68.0233 160.401 68.168 159.673 68.168C158.945 68.168 158.305 68.0233 157.755 67.734C157.213 67.4447 156.793 67.034 156.495 66.502C156.196 65.9607 156.047 65.3307 156.047 64.612C156.047 63.8933 156.196 63.2633 156.495 62.722C156.793 62.1807 157.213 61.7653 157.755 61.476C158.305 61.1773 158.945 61.028 159.673 61.028C160.401 61.028 161.035 61.1727 161.577 61.462C162.127 61.7513 162.552 62.1667 162.851 62.708C163.149 63.24 163.299 63.8653 163.299 64.584ZM159.673 66.614C160.177 66.614 160.592 66.4227 160.919 66.04C161.255 65.6573 161.423 65.172 161.423 64.584C161.423 63.996 161.259 63.5153 160.933 63.142C160.606 62.7687 160.186 62.582 159.673 62.582C159.169 62.582 158.749 62.7733 158.413 63.156C158.086 63.5387 157.923 64.024 157.923 64.612C157.923 65.2 158.086 65.6807 158.413 66.054C158.739 66.4273 159.159 66.614 159.673 66.614ZM165.964 63.296C166.3 63.0533 166.608 62.862 166.888 62.722C167.168 62.5727 167.466 62.498 167.784 62.498C168.092 62.498 168.33 62.6147 168.498 62.848C168.675 63.0813 168.764 63.408 168.764 63.828V68H170.584V63.744C170.584 62.876 170.411 62.1993 170.066 61.714C169.72 61.2287 169.118 60.986 168.26 60.986C167.886 60.986 167.462 61.07 166.986 61.238C166.51 61.406 166.062 61.6393 165.642 61.938L165.334 61.21H164.144V68H165.964V63.296ZM172.689 60.244C172.979 60.244 173.221 60.146 173.417 59.95C173.623 59.754 173.725 59.5113 173.725 59.222C173.725 58.9327 173.623 58.69 173.417 58.494C173.221 58.298 172.979 58.2 172.689 58.2C172.409 58.2 172.171 58.298 171.975 58.494C171.779 58.69 171.681 58.9327 171.681 59.222C171.681 59.5113 171.779 59.754 171.975 59.95C172.171 60.146 172.409 60.244 172.689 60.244ZM173.613 68V61.21H171.793V68H173.613ZM176.963 61.224V59.292L175.157 59.614V61.224H174.247V62.624H175.157V65.83C175.157 66.6047 175.395 67.2067 175.871 67.636C176.347 68.0653 177.009 68.28 177.859 68.28C178.083 68.28 178.33 68.238 178.601 68.154C178.881 68.07 179.091 67.972 179.231 67.86L178.699 66.544C178.447 66.6653 178.199 66.726 177.957 66.726C177.639 66.726 177.392 66.614 177.215 66.39C177.047 66.166 176.963 65.872 176.963 65.508V62.624H178.755L178.195 61.224H176.963ZM186.761 64.584C186.761 65.3027 186.611 65.9327 186.313 66.474C186.014 67.0153 185.589 67.4353 185.039 67.734C184.497 68.0233 183.863 68.168 183.135 68.168C182.407 68.168 181.767 68.0233 181.217 67.734C180.675 67.4447 180.255 67.034 179.957 66.502C179.658 65.9607 179.509 65.3307 179.509 64.612C179.509 63.8933 179.658 63.2633 179.957 62.722C180.255 62.1807 180.675 61.7653 181.217 61.476C181.767 61.1773 182.407 61.028 183.135 61.028C183.863 61.028 184.497 61.1727 185.039 61.462C185.589 61.7513 186.014 62.1667 186.313 62.708C186.611 63.24 186.761 63.8653 186.761 64.584ZM183.135 66.614C183.639 66.614 184.054 66.4227 184.381 66.04C184.717 65.6573 184.885 65.172 184.885 64.584C184.885 63.996 184.721 63.5153 184.395 63.142C184.068 62.7687 183.648 62.582 183.135 62.582C182.631 62.582 182.211 62.7733 181.875 63.156C181.548 63.5387 181.385 64.024 181.385 64.612C181.385 65.2 181.548 65.6807 181.875 66.054C182.201 66.4273 182.621 66.614 183.135 66.614ZM189.426 63.856C189.818 63.5107 190.238 63.226 190.686 63.002C191.143 62.778 191.526 62.666 191.834 62.666L191.47 61.21C191.134 61.21 190.746 61.3267 190.308 61.56C189.869 61.7933 189.486 62.0547 189.16 62.344L188.558 61.21H187.606V68H189.426V63.856ZM193.362 60.244C193.652 60.244 193.894 60.146 194.09 59.95C194.296 59.754 194.398 59.5113 194.398 59.222C194.398 58.9327 194.296 58.69 194.09 58.494C193.894 58.298 193.652 58.2 193.362 58.2C193.082 58.2 192.844 58.298 192.648 58.494C192.452 58.69 192.354 58.9327 192.354 59.222C192.354 59.5113 192.452 59.754 192.648 59.95C192.844 60.146 193.082 60.244 193.362 60.244ZM194.286 68V61.21H192.466V68H194.286ZM197.37 63.296C197.706 63.0533 198.014 62.862 198.294 62.722C198.574 62.5727 198.872 62.498 199.19 62.498C199.498 62.498 199.736 62.6147 199.904 62.848C200.081 63.0813 200.17 63.408 200.17 63.828V68H201.99V63.744C201.99 62.876 201.817 62.1993 201.472 61.714C201.126 61.2287 200.524 60.986 199.666 60.986C199.292 60.986 198.868 61.07 198.392 61.238C197.916 61.406 197.468 61.6393 197.048 61.938L196.74 61.21H195.55V68H197.37V63.296ZM209.527 61.21V68.322C209.527 69.2553 209.201 69.9693 208.547 70.464C207.894 70.968 207.017 71.22 205.915 71.22C205.57 71.22 205.103 71.1453 204.515 70.996C203.927 70.856 203.47 70.674 203.143 70.45L203.689 69.162C204.109 69.3673 204.492 69.5167 204.837 69.61C205.183 69.7033 205.528 69.7547 205.873 69.764C206.424 69.7547 206.863 69.6193 207.189 69.358C207.525 69.0967 207.693 68.7467 207.693 68.308V67.734C207.227 68.0233 206.727 68.168 206.195 68.168C205.141 68.168 204.305 67.8507 203.689 67.216C203.083 66.572 202.779 65.704 202.779 64.612C202.779 63.9027 202.915 63.2773 203.185 62.736C203.465 62.1947 203.867 61.7747 204.389 61.476C204.912 61.1773 205.533 61.028 206.251 61.028C206.559 61.028 206.886 61.1027 207.231 61.252C207.586 61.4013 207.899 61.5927 208.169 61.826L208.575 61.21H209.527ZM206.265 66.614C206.508 66.614 206.741 66.5673 206.965 66.474C207.199 66.3807 207.441 66.2407 207.693 66.054V63.156C207.451 62.9507 207.217 62.806 206.993 62.722C206.769 62.6287 206.527 62.582 206.265 62.582C205.771 62.582 205.379 62.7733 205.089 63.156C204.8 63.5293 204.655 64.0147 204.655 64.612C204.655 65.2093 204.795 65.6947 205.075 66.068C205.365 66.432 205.761 66.614 206.265 66.614ZM216.905 61.028C217.959 61.028 218.79 61.35 219.397 61.994C220.013 62.6287 220.321 63.492 220.321 64.584C220.321 65.2933 220.181 65.9187 219.901 66.46C219.63 67.0013 219.233 67.4213 218.711 67.72C218.188 68.0187 217.567 68.168 216.849 68.168C216.466 68.168 216.06 68.0607 215.631 67.846V70.926L213.825 71.066V61.21H214.749L215.113 61.672C215.663 61.2427 216.261 61.028 216.905 61.028ZM216.835 66.614C217.329 66.614 217.721 66.4273 218.011 66.054C218.3 65.6713 218.445 65.1813 218.445 64.584C218.445 63.9867 218.3 63.506 218.011 63.142C217.731 62.7687 217.339 62.582 216.835 62.582C216.443 62.582 216.041 62.7173 215.631 62.988V66.222C216.013 66.4833 216.415 66.614 216.835 66.614ZM223.104 68V58.116L221.298 58.27V68H223.104ZM225.159 63.156C225.42 63.0347 225.738 62.932 226.111 62.848C226.484 62.7547 226.825 62.708 227.133 62.708C227.469 62.708 227.73 62.806 227.917 63.002C228.113 63.1887 228.216 63.4547 228.225 63.8H226.895C226.111 63.8 225.486 63.9913 225.019 64.374C224.552 64.7473 224.319 65.2793 224.319 65.97C224.319 66.642 224.524 67.1787 224.935 67.58C225.346 67.972 225.957 68.168 226.769 68.168C227.394 68.168 227.992 67.8693 228.561 67.272L228.869 68H230.059V63.534C230.059 63.058 229.924 62.6287 229.653 62.246C229.392 61.8633 229.037 61.5647 228.589 61.35C228.141 61.1353 227.646 61.028 227.105 61.028C226.788 61.028 226.363 61.0933 225.831 61.224C225.299 61.3453 224.912 61.4853 224.669 61.644L225.159 63.156ZM225.873 65.97C225.873 65.7087 225.962 65.4847 226.139 65.298C226.326 65.1113 226.568 65.018 226.867 65.018H228.239V66.054C227.782 66.502 227.282 66.726 226.741 66.726C226.489 66.726 226.279 66.6513 226.111 66.502C225.952 66.3527 225.873 66.1753 225.873 65.97ZM233.348 61.224V59.292L231.542 59.614V61.224H230.632V62.624H231.542V65.83C231.542 66.6047 231.78 67.2067 232.256 67.636C232.732 68.0653 233.395 68.28 234.244 68.28C234.468 68.28 234.715 68.238 234.986 68.154C235.266 68.07 235.476 67.972 235.616 67.86L235.084 66.544C234.832 66.6653 234.585 66.726 234.342 66.726C234.025 66.726 233.777 66.614 233.6 66.39C233.432 66.166 233.348 65.872 233.348 65.508V62.624H235.14L234.58 61.224H233.348ZM236.762 62.624V68H238.582V62.624H240.444L239.87 61.224H238.582V60.958C238.582 60.5847 238.657 60.2907 238.806 60.076C238.955 59.852 239.184 59.74 239.492 59.74C239.688 59.74 239.94 59.8007 240.248 59.922L240.766 58.606C240.617 58.4847 240.407 58.382 240.136 58.298C239.865 58.214 239.623 58.172 239.408 58.172C238.577 58.172 237.929 58.396 237.462 58.844C236.995 59.292 236.762 59.9127 236.762 60.706V61.224H235.712V62.624H236.762ZM248.089 64.584C248.089 65.3027 247.939 65.9327 247.641 66.474C247.342 67.0153 246.917 67.4353 246.367 67.734C245.825 68.0233 245.191 68.168 244.463 68.168C243.735 68.168 243.095 68.0233 242.545 67.734C242.003 67.4447 241.583 67.034 241.285 66.502C240.986 65.9607 240.837 65.3307 240.837 64.612C240.837 63.8933 240.986 63.2633 241.285 62.722C241.583 62.1807 242.003 61.7653 242.545 61.476C243.095 61.1773 243.735 61.028 244.463 61.028C245.191 61.028 245.825 61.1727 246.367 61.462C246.917 61.7513 247.342 62.1667 247.641 62.708C247.939 63.24 248.089 63.8653 248.089 64.584ZM244.463 66.614C244.967 66.614 245.382 66.4227 245.709 66.04C246.045 65.6573 246.213 65.172 246.213 64.584C246.213 63.996 246.049 63.5153 245.723 63.142C245.396 62.7687 244.976 62.582 244.463 62.582C243.959 62.582 243.539 62.7733 243.203 63.156C242.876 63.5387 242.713 64.024 242.713 64.612C242.713 65.2 242.876 65.6807 243.203 66.054C243.529 66.4273 243.949 66.614 244.463 66.614ZM250.754 63.856C251.146 63.5107 251.566 63.226 252.014 63.002C252.471 62.778 252.854 62.666 253.162 62.666L252.798 61.21C252.462 61.21 252.074 61.3267 251.636 61.56C251.197 61.7933 250.814 62.0547 250.488 62.344L249.886 61.21H248.934V68H250.754V63.856ZM262.096 60.986C262.871 60.986 263.426 61.196 263.762 61.616C264.108 62.0267 264.28 62.6427 264.28 63.464V68H262.46V63.828C262.46 63.3893 262.39 63.058 262.25 62.834C262.12 62.61 261.91 62.498 261.62 62.498C261.34 62.498 261.084 62.5633 260.85 62.694C260.617 62.8247 260.318 63.0207 259.954 63.282V63.464V68H258.134V63.828C258.134 63.3893 258.064 63.058 257.924 62.834C257.794 62.61 257.584 62.498 257.294 62.498C257.014 62.498 256.758 62.5633 256.524 62.694C256.291 62.8247 255.988 63.0253 255.614 63.296V68H253.794V61.21H254.984L255.292 61.938C255.712 61.6393 256.146 61.406 256.594 61.238C257.042 61.07 257.434 60.986 257.77 60.986C258.694 60.986 259.32 61.294 259.646 61.91C260.066 61.6207 260.496 61.3967 260.934 61.238C261.373 61.07 261.76 60.986 262.096 60.986Z" fill="white"/>
<defs>
<filter id="filter0_d" x="0" y="4" width="73" height="73" filterUnits="userSpaceOnUse" color-interpolation-filters="sRGB">
<feFlood flood-opacity="0" result="BackgroundImageFix"/>
<feColorMatrix in="SourceAlpha" type="matrix" values="0 0 0 0 0 0 0 0 0 0 0 0 0 0 0 0 0 0 127 0"/>
<feOffset dy="4"/>
<feGaussianBlur stdDeviation="2"/>
<feColorMatrix type="matrix" values="0 0 0 0 0 0 0 0 0 0 0 0 0 0 0 0 0 0 0.25 0"/>
<feBlend mode="normal" in2="BackgroundImageFix" result="effect1_dropShadow"/>
<feBlend mode="normal" in="SourceGraphic" in2="effect1_dropShadow" result="shape"/>
</filter>
<filter id="filter1_d" x="75.6017" y="8.19995" width="192.227" height="66.816" filterUnits="userSpaceOnUse" color-interpolation-filters="sRGB">
<feFlood flood-opacity="0" result="BackgroundImageFix"/>
<feColorMatrix in="SourceAlpha" type="matrix" values="0 0 0 0 0 0 0 0 0 0 0 0 0 0 0 0 0 0 127 0"/>
<feOffset dy="4"/>
<feGaussianBlur stdDeviation="2"/>
<feColorMatrix type="matrix" values="0 0 0 0 0 0 0 0 0 0 0 0 0 0 0 0 0 0 0.25 0"/>
<feBlend mode="normal" in2="BackgroundImageFix" result="effect1_dropShadow"/>
<feBlend mode="normal" in="SourceGraphic" in2="effect1_dropShadow" result="shape"/>
</filter>
<linearGradient id="paint0_linear" x1="57.3031" y1="26.2833" x2="32.374" y2="49.6391" gradientUnits="userSpaceOnUse">
<stop stop-color="white"/>
<stop offset="1" stop-color="white" stop-opacity="0"/>
</linearGradient>
<linearGradient id="paint1_linear" x1="60.8322" y1="30.097" x2="35.9031" y2="53.4529" gradientUnits="userSpaceOnUse">
<stop stop-color="white"/>
<stop offset="1" stop-color="white" stop-opacity="0"/>
</linearGradient>
<linearGradient id="paint2_linear" x1="36.6721" y1="42.1804" x2="36.4169" y2="56.7933" gradientUnits="userSpaceOnUse">
<stop stop-color="white"/>
<stop offset="1" stop-color="white" stop-opacity="0"/>
</linearGradient>
<linearGradient id="paint3_linear" x1="38.0105" y1="42.3635" x2="37.6828" y2="54.5194" gradientUnits="userSpaceOnUse">
<stop stop-color="white"/>
<stop offset="1" stop-color="white" stop-opacity="0"/>
</linearGradient>
<linearGradient id="paint4_linear" x1="31.9053" y1="28.376" x2="17.1007" y2="42.2463" gradientUnits="userSpaceOnUse">
<stop stop-color="white"/>
<stop offset="1" stop-color="white" stop-opacity="0"/>
</linearGradient>
<linearGradient id="paint5_linear" x1="32.5564" y1="28.2624" x2="20.3416" y2="40.5428" gradientUnits="userSpaceOnUse">
<stop stop-color="white"/>
<stop offset="1" stop-color="white" stop-opacity="0"/>
</linearGradient>
<linearGradient id="paint6_linear" x1="32.4752" y1="27.376" x2="15.9488" y2="42.8594" gradientUnits="userSpaceOnUse">
<stop stop-color="white"/>
<stop offset="1" stop-color="white" stop-opacity="0"/>
</linearGradient>
<linearGradient id="paint7_linear" x1="33.5542" y1="28.3285" x2="19.9504" y2="42.0623" gradientUnits="userSpaceOnUse">
<stop stop-color="white"/>
<stop offset="1" stop-color="white" stop-opacity="0"/>
</linearGradient>
</defs>
</svg>
