<svg width="268" height="78" viewBox="0 0 268 78" fill="none" xmlns="http://www.w3.org/2000/svg">
<g filter="url(#filter0_d)">
<circle cx="231.5" cy="37.5" r="31" stroke="#DCE1EB" stroke-width="3"/>
</g>
<path d="M254.65 29.7886L249.956 24.778L239.998 24.6525L220.223 43.0067L234.307 58.0386L254.081 39.6844L254.65 29.7886ZM245.16 33.9131C244.01 32.6853 244.138 30.706 245.446 29.4918C246.754 28.2776 248.747 28.2886 249.897 29.5165C251.047 30.7443 250.919 32.7236 249.611 33.9378C248.303 35.152 246.31 35.141 245.16 33.9131Z" fill="white" stroke="url(#paint0_linear)" stroke-width="2"/>
<path d="M254.075 39.7247L254.674 29.8606L252.326 27.3545L249.919 29.5883C249.925 29.5937 249.93 29.5989 249.935 29.6044C251.078 30.8245 250.945 32.7975 249.636 34.0117C248.328 35.2259 246.342 35.2211 245.198 34.0011C245.193 33.9956 245.188 33.9898 245.183 33.9838L227.288 50.5939L234.3 58.0789L254.075 39.7247Z" fill="#DCE1EB" stroke="url(#paint1_linear)" stroke-width="2"/>
<path d="M223.648 47.6108L228.704 43.1285L239.373 53.3617L234.317 57.8439L223.648 47.6108Z" fill="#FFDA00" stroke="url(#paint2_linear)" stroke-width="2"/>
<path d="M226.353 45.2994L228.712 43.2476L239.284 53.5815L236.924 55.6337L226.353 45.2994Z" fill="#FFBC36" stroke="url(#paint3_linear)" stroke-width="2"/>
<path d="M226.991 44.3039C222.885 48.115 216.19 47.6106 212.036 43.1773C207.882 38.7436 207.844 32.0603 211.95 28.2492C216.056 24.4381 222.752 24.9425 226.905 29.3761C231.059 33.8094 231.097 40.4928 226.991 44.3039Z" fill="#64E1DC" stroke="url(#paint4_linear)" stroke-width="2"/>
<path d="M227.028 43.0437C230.997 39.0903 230.723 32.4124 226.416 28.1282C224.261 25.9843 221.504 24.8461 218.789 24.7394L219.655 45.8331C222.369 45.9433 225.042 45.0221 227.028 43.0437Z" fill="#00C8C8" stroke="url(#paint5_linear)" stroke-width="2"/>
<path d="M210.876 43.7822C206.228 38.8211 206.17 31.3293 210.746 27.0818C215.323 22.8343 222.827 23.4148 227.475 28.376C232.123 33.3368 232.182 40.8289 227.605 45.0764C223.029 49.324 215.525 48.7434 210.876 43.7822ZM225.746 29.9811C222.066 26.0535 216.125 25.5942 212.503 28.9566C208.88 32.3189 208.926 38.2495 212.606 42.1771C216.285 46.1044 222.226 46.564 225.849 43.2016C229.471 39.8393 229.425 33.9084 225.746 29.9811Z" fill="#00C8C8" stroke="url(#paint6_linear)" stroke-width="2"/>
<path d="M225.609 29.7319C229.417 33.5038 229.671 39.4163 226.177 42.9115C224.428 44.6608 222.066 45.4781 219.666 45.3854L219.771 47.8373C222.803 47.9542 225.786 46.9216 227.995 44.7121C232.409 40.2968 232.087 32.8279 227.277 28.0634C224.87 25.679 221.788 24.4167 218.757 24.3036L218.862 26.7555C221.263 26.845 223.703 27.8442 225.609 29.7319Z" fill="#1CADB5" stroke="url(#paint7_linear)" stroke-width="2"/>
<g filter="url(#filter1_d)">
<path d="M8.616 17.544C9.93867 17.544 11.048 17.096 11.944 16.2C12.8827 15.304 13.352 14.1947 13.352 12.872C13.352 11.5493 12.8827 10.44 11.944 9.544C11.048 8.648 9.93867 8.2 8.616 8.2C7.336 8.2 6.248 8.648 5.352 9.544C4.456 10.44 4.008 11.5493 4.008 12.872C4.008 14.1947 4.456 15.304 5.352 16.2C6.248 17.096 7.336 17.544 8.616 17.544ZM12.84 53V21.96H4.52V53H12.84ZM28.215 31.496C29.751 30.3867 31.159 29.512 32.439 28.872C33.719 28.1893 35.0843 27.848 36.535 27.848C37.943 27.848 39.031 28.3813 39.799 29.448C40.6097 30.5147 41.015 32.008 41.015 33.928V53H49.335V33.544C49.335 29.576 48.5457 26.4827 46.967 24.264C45.3883 22.0453 42.6363 20.936 38.711 20.936C37.0043 20.936 35.063 21.32 32.887 22.088C30.711 22.856 28.663 23.9227 26.743 25.288L25.335 21.96H19.895V53H28.215V31.496ZM70.609 21.128C75.4303 21.128 79.2277 22.6 82.001 25.544C84.817 28.4453 86.225 32.392 86.225 37.384C86.225 40.6267 85.585 43.4853 84.305 45.96C83.0677 48.4347 81.2543 50.3547 78.865 51.72C76.4757 53.0853 73.6383 53.768 70.353 53.768C68.6037 53.768 66.7477 53.2773 64.785 52.296V66.376L56.529 67.016V21.96H60.753L62.417 24.072C64.9343 22.1093 67.665 21.128 70.609 21.128ZM70.289 46.664C72.5503 46.664 74.3423 45.8107 75.665 44.104C76.9877 42.3547 77.649 40.1147 77.649 37.384C77.649 34.6533 76.9877 32.456 75.665 30.792C74.385 29.0853 72.593 28.232 70.289 28.232C68.497 28.232 66.6623 28.8507 64.785 30.088V44.872C66.5343 46.0667 68.369 46.664 70.289 46.664ZM99.6525 34.056C101.445 32.4773 103.365 31.176 105.413 30.152C107.503 29.128 109.253 28.616 110.661 28.616L108.997 21.96C107.461 21.96 105.69 22.4933 103.685 23.56C101.679 24.6267 99.9298 25.8213 98.4365 27.144L95.6845 21.96H91.3325V53H99.6525V34.056ZM118.929 17.544C120.251 17.544 121.361 17.096 122.257 16.2C123.195 15.304 123.665 14.1947 123.665 12.872C123.665 11.5493 123.195 10.44 122.257 9.544C121.361 8.648 120.251 8.2 118.929 8.2C117.649 8.2 116.561 8.648 115.665 9.544C114.769 10.44 114.321 11.5493 114.321 12.872C114.321 14.1947 114.769 15.304 115.665 16.2C116.561 17.096 117.649 17.544 118.929 17.544ZM123.153 53V21.96H114.833V53H123.153ZM155.552 24.392C154.101 23.4107 152.309 22.6213 150.176 22.024C148.042 21.4267 146.25 21.128 144.8 21.128C141.472 21.128 138.549 21.8107 136.032 23.176C133.557 24.4987 131.637 26.3973 130.272 28.872C128.949 31.3467 128.288 34.2267 128.288 37.512C128.288 40.7973 128.949 43.6773 130.272 46.152C131.637 48.584 133.557 50.4613 136.032 51.784C138.549 53.1067 141.472 53.768 144.8 53.768C146.378 53.768 148.234 53.4907 150.368 52.936C152.501 52.3813 154.229 51.592 155.552 50.568L153.184 44.552C151.562 45.2773 150.112 45.8107 148.832 46.152C147.552 46.4933 146.229 46.664 144.864 46.664C142.517 46.664 140.597 45.8107 139.104 44.104C137.61 42.3973 136.864 40.2 136.864 37.512C136.864 34.824 137.61 32.6053 139.104 30.856C140.64 29.1067 142.56 28.232 144.864 28.232C146.229 28.232 147.552 28.4027 148.832 28.744C150.112 29.0853 151.562 29.6187 153.184 30.344L155.552 24.392ZM188.235 37.384C188.235 34.3547 187.723 31.624 186.699 29.192C185.675 26.7173 184.096 24.7547 181.963 23.304C179.83 21.8533 177.206 21.128 174.091 21.128C170.891 21.128 168.118 21.8107 165.771 23.176C163.424 24.4987 161.611 26.3973 160.331 28.872C159.094 31.3467 158.475 34.2267 158.475 37.512C158.475 42.5893 159.99 46.5787 163.019 49.48C166.091 52.3387 170.571 53.768 176.459 53.768C178.976 53.768 181.152 53.448 182.987 52.808C184.822 52.1253 186.528 51.1653 188.107 49.928L185.675 43.912C184.096 44.808 182.624 45.4907 181.259 45.96C179.894 46.4293 178.358 46.664 176.651 46.664C173.707 46.664 171.51 46.088 170.059 44.936C168.651 43.784 167.734 42.12 167.307 39.944H188.235V37.384ZM167.371 34.376C167.712 32.3707 168.459 30.856 169.611 29.832C170.763 28.7653 172.192 28.232 173.899 28.232C175.606 28.232 176.992 28.744 178.059 29.768C179.168 30.792 179.936 32.328 180.363 34.376H167.371Z" fill="white"/>
</g>
<path d="M80.072 60.986C80.8467 60.986 81.402 61.196 81.738 61.616C82.0833 62.0267 82.256 62.6427 82.256 63.464V68H80.436V63.828C80.436 63.3893 80.366 63.058 80.226 62.834C80.0953 62.61 79.8853 62.498 79.596 62.498C79.316 62.498 79.0593 62.5633 78.826 62.694C78.5927 62.8247 78.294 63.0207 77.93 63.282V63.464V68H76.11V63.828C76.11 63.3893 76.04 63.058 75.9 62.834C75.7693 62.61 75.5593 62.498 75.27 62.498C74.99 62.498 74.7333 62.5633 74.5 62.694C74.2667 62.8247 73.9633 63.0253 73.59 63.296V68H71.77V61.21H72.96L73.268 61.938C73.688 61.6393 74.122 61.406 74.57 61.238C75.018 61.07 75.41 60.986 75.746 60.986C76.67 60.986 77.2953 61.294 77.622 61.91C78.042 61.6207 78.4713 61.3967 78.91 61.238C79.3487 61.07 79.736 60.986 80.072 60.986ZM90.2986 64.584C90.2986 65.3027 90.1492 65.9327 89.8506 66.474C89.5519 67.0153 89.1272 67.4353 88.5766 67.734C88.0352 68.0233 87.4006 68.168 86.6726 68.168C85.9446 68.168 85.3052 68.0233 84.7546 67.734C84.2132 67.4447 83.7932 67.034 83.4946 66.502C83.1959 65.9607 83.0466 65.3307 83.0466 64.612C83.0466 63.8933 83.1959 63.2633 83.4946 62.722C83.7932 62.1807 84.2132 61.7653 84.7546 61.476C85.3052 61.1773 85.9446 61.028 86.6726 61.028C87.4006 61.028 88.0352 61.1727 88.5766 61.462C89.1272 61.7513 89.5519 62.1667 89.8506 62.708C90.1492 63.24 90.2986 63.8653 90.2986 64.584ZM86.6726 66.614C87.1766 66.614 87.5919 66.4227 87.9186 66.04C88.2546 65.6573 88.4226 65.172 88.4226 64.584C88.4226 63.996 88.2592 63.5153 87.9326 63.142C87.6059 62.7687 87.1859 62.582 86.6726 62.582C86.1686 62.582 85.7486 62.7733 85.4126 63.156C85.0859 63.5387 84.9226 64.024 84.9226 64.612C84.9226 65.2 85.0859 65.6807 85.4126 66.054C85.7392 66.4273 86.1592 66.614 86.6726 66.614ZM92.9636 63.296C93.2996 63.0533 93.6076 62.862 93.8876 62.722C94.1676 62.5727 94.4663 62.498 94.7836 62.498C95.0916 62.498 95.3296 62.6147 95.4976 62.848C95.6749 63.0813 95.7636 63.408 95.7636 63.828V68H97.5836V63.744C97.5836 62.876 97.4109 62.1993 97.0656 61.714C96.7203 61.2287 96.1183 60.986 95.2596 60.986C94.8863 60.986 94.4616 61.07 93.9856 61.238C93.5096 61.406 93.0616 61.6393 92.6416 61.938L92.3336 61.21H91.1436V68H92.9636V63.296ZM99.6893 60.244C99.9786 60.244 100.221 60.146 100.417 59.95C100.623 59.754 100.725 59.5113 100.725 59.222C100.725 58.9327 100.623 58.69 100.417 58.494C100.221 58.298 99.9786 58.2 99.6893 58.2C99.4093 58.2 99.1713 58.298 98.9753 58.494C98.7793 58.69 98.6813 58.9327 98.6813 59.222C98.6813 59.5113 98.7793 59.754 98.9753 59.95C99.1713 60.146 99.4093 60.244 99.6893 60.244ZM100.613 68V61.21H98.7933V68H100.613ZM103.963 61.224V59.292L102.157 59.614V61.224H101.247V62.624H102.157V65.83C102.157 66.6047 102.395 67.2067 102.871 67.636C103.347 68.0653 104.009 68.28 104.859 68.28C105.083 68.28 105.33 68.238 105.601 68.154C105.881 68.07 106.091 67.972 106.231 67.86L105.699 66.544C105.447 66.6653 105.199 66.726 104.957 66.726C104.639 66.726 104.392 66.614 104.215 66.39C104.047 66.166 103.963 65.872 103.963 65.508V62.624H105.755L105.195 61.224H103.963ZM113.761 64.584C113.761 65.3027 113.611 65.9327 113.313 66.474C113.014 67.0153 112.589 67.4353 112.039 67.734C111.497 68.0233 110.863 68.168 110.135 68.168C109.407 68.168 108.767 68.0233 108.217 67.734C107.675 67.4447 107.255 67.034 106.957 66.502C106.658 65.9607 106.509 65.3307 106.509 64.612C106.509 63.8933 106.658 63.2633 106.957 62.722C107.255 62.1807 107.675 61.7653 108.217 61.476C108.767 61.1773 109.407 61.028 110.135 61.028C110.863 61.028 111.497 61.1727 112.039 61.462C112.589 61.7513 113.014 62.1667 113.313 62.708C113.611 63.24 113.761 63.8653 113.761 64.584ZM110.135 66.614C110.639 66.614 111.054 66.4227 111.381 66.04C111.717 65.6573 111.885 65.172 111.885 64.584C111.885 63.996 111.721 63.5153 111.395 63.142C111.068 62.7687 110.648 62.582 110.135 62.582C109.631 62.582 109.211 62.7733 108.875 63.156C108.548 63.5387 108.385 64.024 108.385 64.612C108.385 65.2 108.548 65.6807 108.875 66.054C109.201 66.4273 109.621 66.614 110.135 66.614ZM116.426 63.856C116.818 63.5107 117.238 63.226 117.686 63.002C118.143 62.778 118.526 62.666 118.834 62.666L118.47 61.21C118.134 61.21 117.746 61.3267 117.308 61.56C116.869 61.7933 116.486 62.0547 116.16 62.344L115.558 61.21H114.606V68H116.426V63.856ZM120.362 60.244C120.652 60.244 120.894 60.146 121.09 59.95C121.296 59.754 121.398 59.5113 121.398 59.222C121.398 58.9327 121.296 58.69 121.09 58.494C120.894 58.298 120.652 58.2 120.362 58.2C120.082 58.2 119.844 58.298 119.648 58.494C119.452 58.69 119.354 58.9327 119.354 59.222C119.354 59.5113 119.452 59.754 119.648 59.95C119.844 60.146 120.082 60.244 120.362 60.244ZM121.286 68V61.21H119.466V68H121.286ZM124.37 63.296C124.706 63.0533 125.014 62.862 125.294 62.722C125.574 62.5727 125.872 62.498 126.19 62.498C126.498 62.498 126.736 62.6147 126.904 62.848C127.081 63.0813 127.17 63.408 127.17 63.828V68H128.99V63.744C128.99 62.876 128.817 62.1993 128.472 61.714C128.126 61.2287 127.524 60.986 126.666 60.986C126.292 60.986 125.868 61.07 125.392 61.238C124.916 61.406 124.468 61.6393 124.048 61.938L123.74 61.21H122.55V68H124.37V63.296ZM136.527 61.21V68.322C136.527 69.2553 136.201 69.9693 135.547 70.464C134.894 70.968 134.017 71.22 132.915 71.22C132.57 71.22 132.103 71.1453 131.515 70.996C130.927 70.856 130.47 70.674 130.143 70.45L130.689 69.162C131.109 69.3673 131.492 69.5167 131.837 69.61C132.183 69.7033 132.528 69.7547 132.873 69.764C133.424 69.7547 133.863 69.6193 134.189 69.358C134.525 69.0967 134.693 68.7467 134.693 68.308V67.734C134.227 68.0233 133.727 68.168 133.195 68.168C132.141 68.168 131.305 67.8507 130.689 67.216C130.083 66.572 129.779 65.704 129.779 64.612C129.779 63.9027 129.915 63.2773 130.185 62.736C130.465 62.1947 130.867 61.7747 131.389 61.476C131.912 61.1773 132.533 61.028 133.251 61.028C133.559 61.028 133.886 61.1027 134.231 61.252C134.586 61.4013 134.899 61.5927 135.169 61.826L135.575 61.21H136.527ZM133.265 66.614C133.508 66.614 133.741 66.5673 133.965 66.474C134.199 66.3807 134.441 66.2407 134.693 66.054V63.156C134.451 62.9507 134.217 62.806 133.993 62.722C133.769 62.6287 133.527 62.582 133.265 62.582C132.771 62.582 132.379 62.7733 132.089 63.156C131.8 63.5293 131.655 64.0147 131.655 64.612C131.655 65.2093 131.795 65.6947 132.075 66.068C132.365 66.432 132.761 66.614 133.265 66.614ZM143.905 61.028C144.959 61.028 145.79 61.35 146.397 61.994C147.013 62.6287 147.321 63.492 147.321 64.584C147.321 65.2933 147.181 65.9187 146.901 66.46C146.63 67.0013 146.233 67.4213 145.711 67.72C145.188 68.0187 144.567 68.168 143.849 68.168C143.466 68.168 143.06 68.0607 142.631 67.846V70.926L140.825 71.066V61.21H141.749L142.113 61.672C142.663 61.2427 143.261 61.028 143.905 61.028ZM143.835 66.614C144.329 66.614 144.721 66.4273 145.011 66.054C145.3 65.6713 145.445 65.1813 145.445 64.584C145.445 63.9867 145.3 63.506 145.011 63.142C144.731 62.7687 144.339 62.582 143.835 62.582C143.443 62.582 143.041 62.7173 142.631 62.988V66.222C143.013 66.4833 143.415 66.614 143.835 66.614ZM150.104 68V58.116L148.298 58.27V68H150.104ZM152.159 63.156C152.42 63.0347 152.738 62.932 153.111 62.848C153.484 62.7547 153.825 62.708 154.133 62.708C154.469 62.708 154.73 62.806 154.917 63.002C155.113 63.1887 155.216 63.4547 155.225 63.8H153.895C153.111 63.8 152.486 63.9913 152.019 64.374C151.552 64.7473 151.319 65.2793 151.319 65.97C151.319 66.642 151.524 67.1787 151.935 67.58C152.346 67.972 152.957 68.168 153.769 68.168C154.394 68.168 154.992 67.8693 155.561 67.272L155.869 68H157.059V63.534C157.059 63.058 156.924 62.6287 156.653 62.246C156.392 61.8633 156.037 61.5647 155.589 61.35C155.141 61.1353 154.646 61.028 154.105 61.028C153.788 61.028 153.363 61.0933 152.831 61.224C152.299 61.3453 151.912 61.4853 151.669 61.644L152.159 63.156ZM152.873 65.97C152.873 65.7087 152.962 65.4847 153.139 65.298C153.326 65.1113 153.568 65.018 153.867 65.018H155.239V66.054C154.782 66.502 154.282 66.726 153.741 66.726C153.489 66.726 153.279 66.6513 153.111 66.502C152.952 66.3527 152.873 66.1753 152.873 65.97ZM160.348 61.224V59.292L158.542 59.614V61.224H157.632V62.624H158.542V65.83C158.542 66.6047 158.78 67.2067 159.256 67.636C159.732 68.0653 160.395 68.28 161.244 68.28C161.468 68.28 161.715 68.238 161.986 68.154C162.266 68.07 162.476 67.972 162.616 67.86L162.084 66.544C161.832 66.6653 161.585 66.726 161.342 66.726C161.025 66.726 160.777 66.614 160.6 66.39C160.432 66.166 160.348 65.872 160.348 65.508V62.624H162.14L161.58 61.224H160.348ZM163.762 62.624V68H165.582V62.624H167.444L166.87 61.224H165.582V60.958C165.582 60.5847 165.657 60.2907 165.806 60.076C165.955 59.852 166.184 59.74 166.492 59.74C166.688 59.74 166.94 59.8007 167.248 59.922L167.766 58.606C167.617 58.4847 167.407 58.382 167.136 58.298C166.865 58.214 166.623 58.172 166.408 58.172C165.577 58.172 164.929 58.396 164.462 58.844C163.995 59.292 163.762 59.9127 163.762 60.706V61.224H162.712V62.624H163.762ZM175.089 64.584C175.089 65.3027 174.939 65.9327 174.641 66.474C174.342 67.0153 173.917 67.4353 173.367 67.734C172.825 68.0233 172.191 68.168 171.463 68.168C170.735 68.168 170.095 68.0233 169.545 67.734C169.003 67.4447 168.583 67.034 168.285 66.502C167.986 65.9607 167.837 65.3307 167.837 64.612C167.837 63.8933 167.986 63.2633 168.285 62.722C168.583 62.1807 169.003 61.7653 169.545 61.476C170.095 61.1773 170.735 61.028 171.463 61.028C172.191 61.028 172.825 61.1727 173.367 61.462C173.917 61.7513 174.342 62.1667 174.641 62.708C174.939 63.24 175.089 63.8653 175.089 64.584ZM171.463 66.614C171.967 66.614 172.382 66.4227 172.709 66.04C173.045 65.6573 173.213 65.172 173.213 64.584C173.213 63.996 173.049 63.5153 172.723 63.142C172.396 62.7687 171.976 62.582 171.463 62.582C170.959 62.582 170.539 62.7733 170.203 63.156C169.876 63.5387 169.713 64.024 169.713 64.612C169.713 65.2 169.876 65.6807 170.203 66.054C170.529 66.4273 170.949 66.614 171.463 66.614ZM177.754 63.856C178.146 63.5107 178.566 63.226 179.014 63.002C179.471 62.778 179.854 62.666 180.162 62.666L179.798 61.21C179.462 61.21 179.074 61.3267 178.636 61.56C178.197 61.7933 177.814 62.0547 177.488 62.344L176.886 61.21H175.934V68H177.754V63.856ZM189.096 60.986C189.871 60.986 190.426 61.196 190.762 61.616C191.108 62.0267 191.28 62.6427 191.28 63.464V68H189.46V63.828C189.46 63.3893 189.39 63.058 189.25 62.834C189.12 62.61 188.91 62.498 188.62 62.498C188.34 62.498 188.084 62.5633 187.85 62.694C187.617 62.8247 187.318 63.0207 186.954 63.282V63.464V68H185.134V63.828C185.134 63.3893 185.064 63.058 184.924 62.834C184.794 62.61 184.584 62.498 184.294 62.498C184.014 62.498 183.758 62.5633 183.524 62.694C183.291 62.8247 182.988 63.0253 182.614 63.296V68H180.794V61.21H181.984L182.292 61.938C182.712 61.6393 183.146 61.406 183.594 61.238C184.042 61.07 184.434 60.986 184.77 60.986C185.694 60.986 186.32 61.294 186.646 61.91C187.066 61.6207 187.496 61.3967 187.934 61.238C188.373 61.07 188.76 60.986 189.096 60.986Z" fill="white"/>
<defs>
<filter id="filter0_d" x="195" y="5" width="73" height="73" filterUnits="userSpaceOnUse" color-interpolation-filters="sRGB">
<feFlood flood-opacity="0" result="BackgroundImageFix"/>
<feColorMatrix in="SourceAlpha" type="matrix" values="0 0 0 0 0 0 0 0 0 0 0 0 0 0 0 0 0 0 127 0"/>
<feOffset dy="4"/>
<feGaussianBlur stdDeviation="2"/>
<feColorMatrix type="matrix" values="0 0 0 0 0 0 0 0 0 0 0 0 0 0 0 0 0 0 0.25 0"/>
<feBlend mode="normal" in2="BackgroundImageFix" result="effect1_dropShadow"/>
<feBlend mode="normal" in="SourceGraphic" in2="effect1_dropShadow" result="shape"/>
</filter>
<filter id="filter1_d" x="0.00799561" y="8.19995" width="192.227" height="66.816" filterUnits="userSpaceOnUse" color-interpolation-filters="sRGB">
<feFlood flood-opacity="0" result="BackgroundImageFix"/>
<feColorMatrix in="SourceAlpha" type="matrix" values="0 0 0 0 0 0 0 0 0 0 0 0 0 0 0 0 0 0 127 0"/>
<feOffset dy="4"/>
<feGaussianBlur stdDeviation="2"/>
<feColorMatrix type="matrix" values="0 0 0 0 0 0 0 0 0 0 0 0 0 0 0 0 0 0 0.25 0"/>
<feBlend mode="normal" in2="BackgroundImageFix" result="effect1_dropShadow"/>
<feBlend mode="normal" in="SourceGraphic" in2="effect1_dropShadow" result="shape"/>
</filter>
<linearGradient id="paint0_linear" x1="252.303" y1="27.2833" x2="227.374" y2="50.6391" gradientUnits="userSpaceOnUse">
<stop stop-color="white"/>
<stop offset="1" stop-color="white" stop-opacity="0"/>
</linearGradient>
<linearGradient id="paint1_linear" x1="255.832" y1="31.097" x2="230.903" y2="54.4529" gradientUnits="userSpaceOnUse">
<stop stop-color="white"/>
<stop offset="1" stop-color="white" stop-opacity="0"/>
</linearGradient>
<linearGradient id="paint2_linear" x1="231.672" y1="43.1804" x2="231.417" y2="57.7933" gradientUnits="userSpaceOnUse">
<stop stop-color="white"/>
<stop offset="1" stop-color="white" stop-opacity="0"/>
</linearGradient>
<linearGradient id="paint3_linear" x1="233.01" y1="43.3635" x2="232.683" y2="55.5194" gradientUnits="userSpaceOnUse">
<stop stop-color="white"/>
<stop offset="1" stop-color="white" stop-opacity="0"/>
</linearGradient>
<linearGradient id="paint4_linear" x1="226.905" y1="29.376" x2="212.101" y2="43.2463" gradientUnits="userSpaceOnUse">
<stop stop-color="white"/>
<stop offset="1" stop-color="white" stop-opacity="0"/>
</linearGradient>
<linearGradient id="paint5_linear" x1="227.556" y1="29.2624" x2="215.342" y2="41.5428" gradientUnits="userSpaceOnUse">
<stop stop-color="white"/>
<stop offset="1" stop-color="white" stop-opacity="0"/>
</linearGradient>
<linearGradient id="paint6_linear" x1="227.475" y1="28.376" x2="210.949" y2="43.8594" gradientUnits="userSpaceOnUse">
<stop stop-color="white"/>
<stop offset="1" stop-color="white" stop-opacity="0"/>
</linearGradient>
<linearGradient id="paint7_linear" x1="228.554" y1="29.3285" x2="214.95" y2="43.0623" gradientUnits="userSpaceOnUse">
<stop stop-color="white"/>
<stop offset="1" stop-color="white" stop-opacity="0"/>
</linearGradient>
</defs>
</svg>
