<svg width="198" height="138" viewBox="0 0 198 138" fill="none" xmlns="http://www.w3.org/2000/svg">
<g filter="url(#filter0_d)">
<circle cx="99.5" cy="32.5" r="31" stroke="#DCE1EB" stroke-width="3"/>
</g>
<path d="M122.65 24.7886L117.956 19.778L107.998 19.6525L88.2233 38.0067L102.307 53.0386L122.081 34.6844L122.65 24.7886ZM113.16 28.9131C112.01 27.6853 112.138 25.706 113.446 24.4918C114.754 23.2776 116.747 23.2886 117.897 24.5165C119.047 25.7443 118.919 27.7236 117.611 28.9378C116.303 30.152 114.31 30.141 113.16 28.9131Z" fill="white" stroke="url(#paint0_linear)" stroke-width="2"/>
<path d="M122.075 34.7247L122.674 24.8606L120.326 22.3545L117.919 24.5883C117.925 24.5937 117.93 24.5989 117.935 24.6044C119.078 25.8245 118.945 27.7975 117.636 29.0117C116.328 30.2259 114.342 30.2211 113.198 29.0011C113.193 28.9956 113.188 28.9898 113.183 28.9838L95.2876 45.5939L102.3 53.0789L122.075 34.7247Z" fill="#DCE1EB" stroke="url(#paint1_linear)" stroke-width="2"/>
<path d="M91.6476 42.6108L96.7036 38.1285L107.373 48.3617L102.317 52.8439L91.6476 42.6108Z" fill="#FFDA00" stroke="url(#paint2_linear)" stroke-width="2"/>
<path d="M94.3526 40.2994L96.7117 38.2476L107.284 48.5815L104.924 50.6337L94.3526 40.2994Z" fill="#FFBC36" stroke="url(#paint3_linear)" stroke-width="2"/>
<path d="M94.9914 39.3039C90.8853 43.115 84.1896 42.6106 80.0361 38.1773C75.8823 33.7436 75.8438 27.0603 79.9498 23.2492C84.0559 19.4381 90.7516 19.9425 94.9054 24.3761C99.059 28.8094 99.0975 35.4928 94.9914 39.3039Z" fill="#64E1DC" stroke="url(#paint4_linear)" stroke-width="2"/>
<path d="M95.0281 38.0437C98.9973 34.0903 98.7233 27.4124 94.4161 23.1282C92.2607 20.9843 89.5038 19.8461 86.7894 19.7394L87.6549 40.8331C90.3694 40.9433 93.0418 40.0221 95.0281 38.0437Z" fill="#00C8C8" stroke="url(#paint5_linear)" stroke-width="2"/>
<path d="M78.8765 38.7822C74.2284 33.8211 74.17 26.3293 78.7463 22.0818C83.3226 17.8343 90.8271 18.4148 95.4752 23.376C100.123 28.3368 100.182 35.8289 95.6054 40.0764C91.0291 44.324 83.5245 43.7434 78.8765 38.7822ZM93.7458 24.9811C90.0661 21.0535 84.1254 20.5942 80.5028 23.9566C76.8802 27.3189 76.9261 33.2495 80.6058 37.1771C84.2853 41.1044 90.2262 41.564 93.8489 38.2016C97.4715 34.8393 97.4253 28.9084 93.7458 24.9811Z" fill="#00C8C8" stroke="url(#paint6_linear)" stroke-width="2"/>
<path d="M93.6087 24.7319C97.4166 28.5038 97.6715 34.4163 94.1768 37.9115C92.4278 39.6608 90.0659 40.4781 87.6656 40.3854L87.771 42.8373C90.8027 42.9542 93.7855 41.9216 95.9947 39.7121C100.409 35.2968 100.087 27.8279 95.2769 23.0634C92.8698 20.679 89.788 19.4167 86.7567 19.3036L86.8621 21.7555C89.2626 21.845 91.7029 22.8442 93.6087 24.7319Z" fill="#1CADB5" stroke="url(#paint7_linear)" stroke-width="2"/>
<g filter="url(#filter1_d)">
<path d="M12.2098 79.544C13.5324 79.544 14.6418 79.096 15.5378 78.2C16.4764 77.304 16.9458 76.1947 16.9458 74.872C16.9458 73.5493 16.4764 72.44 15.5378 71.544C14.6418 70.648 13.5324 70.2 12.2098 70.2C10.9298 70.2 9.84175 70.648 8.94575 71.544C8.04975 72.44 7.60175 73.5493 7.60175 74.872C7.60175 76.1947 8.04975 77.304 8.94575 78.2C9.84175 79.096 10.9298 79.544 12.2098 79.544ZM16.4338 115V83.96H8.11375V115H16.4338ZM31.8088 93.496C33.3448 92.3867 34.7528 91.512 36.0328 90.872C37.3128 90.1893 38.6781 89.848 40.1288 89.848C41.5368 89.848 42.6248 90.3813 43.3928 91.448C44.2034 92.5147 44.6088 94.008 44.6088 95.928V115H52.9288V95.544C52.9288 91.576 52.1394 88.4827 50.5608 86.264C48.9821 84.0453 46.2301 82.936 42.3048 82.936C40.5981 82.936 38.6568 83.32 36.4808 84.088C34.3048 84.856 32.2568 85.9227 30.3368 87.288L28.9288 83.96H23.4888V115H31.8088V93.496ZM74.2028 83.128C79.0241 83.128 82.8214 84.6 85.5948 87.544C88.4108 90.4453 89.8188 94.392 89.8188 99.384C89.8188 102.627 89.1788 105.485 87.8988 107.96C86.6614 110.435 84.8481 112.355 82.4588 113.72C80.0694 115.085 77.2321 115.768 73.9468 115.768C72.1974 115.768 70.3414 115.277 68.3788 114.296V128.376L60.1228 129.016V83.96H64.3468L66.0108 86.072C68.5281 84.1093 71.2588 83.128 74.2028 83.128ZM73.8828 108.664C76.1441 108.664 77.9361 107.811 79.2588 106.104C80.5814 104.355 81.2428 102.115 81.2428 99.384C81.2428 96.6533 80.5814 94.456 79.2588 92.792C77.9788 91.0853 76.1868 90.232 73.8828 90.232C72.0908 90.232 70.2561 90.8507 68.3788 92.088V106.872C70.1281 108.067 71.9628 108.664 73.8828 108.664ZM103.246 96.056C105.038 94.4773 106.958 93.176 109.006 92.152C111.097 91.128 112.846 90.616 114.254 90.616L112.59 83.96C111.054 83.96 109.284 84.4933 107.278 85.56C105.273 86.6267 103.524 87.8213 102.03 89.144L99.2783 83.96H94.9263V115H103.246V96.056ZM122.522 79.544C123.845 79.544 124.954 79.096 125.85 78.2C126.789 77.304 127.258 76.1947 127.258 74.872C127.258 73.5493 126.789 72.44 125.85 71.544C124.954 70.648 123.845 70.2 122.522 70.2C121.242 70.2 120.154 70.648 119.258 71.544C118.362 72.44 117.914 73.5493 117.914 74.872C117.914 76.1947 118.362 77.304 119.258 78.2C120.154 79.096 121.242 79.544 122.522 79.544ZM126.746 115V83.96H118.426V115H126.746ZM159.145 86.392C157.695 85.4107 155.903 84.6213 153.769 84.024C151.636 83.4267 149.844 83.128 148.393 83.128C145.065 83.128 142.143 83.8107 139.625 85.176C137.151 86.4987 135.231 88.3973 133.865 90.872C132.543 93.3467 131.881 96.2267 131.881 99.512C131.881 102.797 132.543 105.677 133.865 108.152C135.231 110.584 137.151 112.461 139.625 113.784C142.143 115.107 145.065 115.768 148.393 115.768C149.972 115.768 151.828 115.491 153.961 114.936C156.095 114.381 157.823 113.592 159.145 112.568L156.777 106.552C155.156 107.277 153.705 107.811 152.425 108.152C151.145 108.493 149.823 108.664 148.457 108.664C146.111 108.664 144.191 107.811 142.697 106.104C141.204 104.397 140.457 102.2 140.457 99.512C140.457 96.824 141.204 94.6053 142.697 92.856C144.233 91.1067 146.153 90.232 148.457 90.232C149.823 90.232 151.145 90.4027 152.425 90.744C153.705 91.0853 155.156 91.6187 156.777 92.344L159.145 86.392ZM191.829 99.384C191.829 96.3547 191.317 93.624 190.293 91.192C189.269 88.7173 187.69 86.7547 185.557 85.304C183.423 83.8533 180.799 83.128 177.685 83.128C174.485 83.128 171.711 83.8107 169.365 85.176C167.018 86.4987 165.205 88.3973 163.925 90.872C162.687 93.3467 162.069 96.2267 162.069 99.512C162.069 104.589 163.583 108.579 166.613 111.48C169.685 114.339 174.165 115.768 180.053 115.768C182.57 115.768 184.746 115.448 186.581 114.808C188.415 114.125 190.122 113.165 191.701 111.928L189.269 105.912C187.69 106.808 186.218 107.491 184.853 107.96C183.487 108.429 181.951 108.664 180.245 108.664C177.301 108.664 175.103 108.088 173.653 106.936C172.245 105.784 171.327 104.12 170.901 101.944H191.829V99.384ZM170.965 96.376C171.306 94.3707 172.053 92.856 173.205 91.832C174.357 90.7653 175.786 90.232 177.493 90.232C179.199 90.232 180.586 90.744 181.653 91.768C182.762 92.792 183.53 94.328 183.957 96.376H170.965Z" fill="white"/>
</g>
<path d="M81.072 122.986C81.8467 122.986 82.402 123.196 82.738 123.616C83.0833 124.027 83.256 124.643 83.256 125.464V130H81.436V125.828C81.436 125.389 81.366 125.058 81.226 124.834C81.0953 124.61 80.8853 124.498 80.596 124.498C80.316 124.498 80.0593 124.563 79.826 124.694C79.5927 124.825 79.294 125.021 78.93 125.282V125.464V130H77.11V125.828C77.11 125.389 77.04 125.058 76.9 124.834C76.7693 124.61 76.5593 124.498 76.27 124.498C75.99 124.498 75.7333 124.563 75.5 124.694C75.2667 124.825 74.9633 125.025 74.59 125.296V130H72.77V123.21H73.96L74.268 123.938C74.688 123.639 75.122 123.406 75.57 123.238C76.018 123.07 76.41 122.986 76.746 122.986C77.67 122.986 78.2953 123.294 78.622 123.91C79.042 123.621 79.4713 123.397 79.91 123.238C80.3487 123.07 80.736 122.986 81.072 122.986ZM91.2986 126.584C91.2986 127.303 91.1492 127.933 90.8506 128.474C90.5519 129.015 90.1272 129.435 89.5766 129.734C89.0352 130.023 88.4006 130.168 87.6726 130.168C86.9446 130.168 86.3052 130.023 85.7546 129.734C85.2132 129.445 84.7932 129.034 84.4946 128.502C84.1959 127.961 84.0466 127.331 84.0466 126.612C84.0466 125.893 84.1959 125.263 84.4946 124.722C84.7932 124.181 85.2132 123.765 85.7546 123.476C86.3052 123.177 86.9446 123.028 87.6726 123.028C88.4006 123.028 89.0352 123.173 89.5766 123.462C90.1272 123.751 90.5519 124.167 90.8506 124.708C91.1492 125.24 91.2986 125.865 91.2986 126.584ZM87.6726 128.614C88.1766 128.614 88.5919 128.423 88.9186 128.04C89.2546 127.657 89.4226 127.172 89.4226 126.584C89.4226 125.996 89.2592 125.515 88.9326 125.142C88.6059 124.769 88.1859 124.582 87.6726 124.582C87.1686 124.582 86.7486 124.773 86.4126 125.156C86.0859 125.539 85.9226 126.024 85.9226 126.612C85.9226 127.2 86.0859 127.681 86.4126 128.054C86.7392 128.427 87.1592 128.614 87.6726 128.614ZM93.9636 125.296C94.2996 125.053 94.6076 124.862 94.8876 124.722C95.1676 124.573 95.4663 124.498 95.7836 124.498C96.0916 124.498 96.3296 124.615 96.4976 124.848C96.6749 125.081 96.7636 125.408 96.7636 125.828V130H98.5836V125.744C98.5836 124.876 98.4109 124.199 98.0656 123.714C97.7203 123.229 97.1183 122.986 96.2596 122.986C95.8863 122.986 95.4616 123.07 94.9856 123.238C94.5096 123.406 94.0616 123.639 93.6416 123.938L93.3336 123.21H92.1436V130H93.9636V125.296ZM100.689 122.244C100.979 122.244 101.221 122.146 101.417 121.95C101.623 121.754 101.725 121.511 101.725 121.222C101.725 120.933 101.623 120.69 101.417 120.494C101.221 120.298 100.979 120.2 100.689 120.2C100.409 120.2 100.171 120.298 99.9753 120.494C99.7793 120.69 99.6813 120.933 99.6813 121.222C99.6813 121.511 99.7793 121.754 99.9753 121.95C100.171 122.146 100.409 122.244 100.689 122.244ZM101.613 130V123.21H99.7933V130H101.613ZM104.963 123.224V121.292L103.157 121.614V123.224H102.247V124.624H103.157V127.83C103.157 128.605 103.395 129.207 103.871 129.636C104.347 130.065 105.009 130.28 105.859 130.28C106.083 130.28 106.33 130.238 106.601 130.154C106.881 130.07 107.091 129.972 107.231 129.86L106.699 128.544C106.447 128.665 106.199 128.726 105.957 128.726C105.639 128.726 105.392 128.614 105.215 128.39C105.047 128.166 104.963 127.872 104.963 127.508V124.624H106.755L106.195 123.224H104.963ZM114.761 126.584C114.761 127.303 114.611 127.933 114.313 128.474C114.014 129.015 113.589 129.435 113.039 129.734C112.497 130.023 111.863 130.168 111.135 130.168C110.407 130.168 109.767 130.023 109.217 129.734C108.675 129.445 108.255 129.034 107.957 128.502C107.658 127.961 107.509 127.331 107.509 126.612C107.509 125.893 107.658 125.263 107.957 124.722C108.255 124.181 108.675 123.765 109.217 123.476C109.767 123.177 110.407 123.028 111.135 123.028C111.863 123.028 112.497 123.173 113.039 123.462C113.589 123.751 114.014 124.167 114.313 124.708C114.611 125.24 114.761 125.865 114.761 126.584ZM111.135 128.614C111.639 128.614 112.054 128.423 112.381 128.04C112.717 127.657 112.885 127.172 112.885 126.584C112.885 125.996 112.721 125.515 112.395 125.142C112.068 124.769 111.648 124.582 111.135 124.582C110.631 124.582 110.211 124.773 109.875 125.156C109.548 125.539 109.385 126.024 109.385 126.612C109.385 127.2 109.548 127.681 109.875 128.054C110.201 128.427 110.621 128.614 111.135 128.614ZM117.426 125.856C117.818 125.511 118.238 125.226 118.686 125.002C119.143 124.778 119.526 124.666 119.834 124.666L119.47 123.21C119.134 123.21 118.746 123.327 118.308 123.56C117.869 123.793 117.486 124.055 117.16 124.344L116.558 123.21H115.606V130H117.426V125.856ZM121.362 122.244C121.652 122.244 121.894 122.146 122.09 121.95C122.296 121.754 122.398 121.511 122.398 121.222C122.398 120.933 122.296 120.69 122.09 120.494C121.894 120.298 121.652 120.2 121.362 120.2C121.082 120.2 120.844 120.298 120.648 120.494C120.452 120.69 120.354 120.933 120.354 121.222C120.354 121.511 120.452 121.754 120.648 121.95C120.844 122.146 121.082 122.244 121.362 122.244ZM122.286 130V123.21H120.466V130H122.286ZM125.37 125.296C125.706 125.053 126.014 124.862 126.294 124.722C126.574 124.573 126.872 124.498 127.19 124.498C127.498 124.498 127.736 124.615 127.904 124.848C128.081 125.081 128.17 125.408 128.17 125.828V130H129.99V125.744C129.99 124.876 129.817 124.199 129.472 123.714C129.126 123.229 128.524 122.986 127.666 122.986C127.292 122.986 126.868 123.07 126.392 123.238C125.916 123.406 125.468 123.639 125.048 123.938L124.74 123.21H123.55V130H125.37V125.296ZM137.527 123.21V130.322C137.527 131.255 137.201 131.969 136.547 132.464C135.894 132.968 135.017 133.22 133.915 133.22C133.57 133.22 133.103 133.145 132.515 132.996C131.927 132.856 131.47 132.674 131.143 132.45L131.689 131.162C132.109 131.367 132.492 131.517 132.837 131.61C133.183 131.703 133.528 131.755 133.873 131.764C134.424 131.755 134.863 131.619 135.189 131.358C135.525 131.097 135.693 130.747 135.693 130.308V129.734C135.227 130.023 134.727 130.168 134.195 130.168C133.141 130.168 132.305 129.851 131.689 129.216C131.083 128.572 130.779 127.704 130.779 126.612C130.779 125.903 130.915 125.277 131.185 124.736C131.465 124.195 131.867 123.775 132.389 123.476C132.912 123.177 133.533 123.028 134.251 123.028C134.559 123.028 134.886 123.103 135.231 123.252C135.586 123.401 135.899 123.593 136.169 123.826L136.575 123.21H137.527ZM134.265 128.614C134.508 128.614 134.741 128.567 134.965 128.474C135.199 128.381 135.441 128.241 135.693 128.054V125.156C135.451 124.951 135.217 124.806 134.993 124.722C134.769 124.629 134.527 124.582 134.265 124.582C133.771 124.582 133.379 124.773 133.089 125.156C132.8 125.529 132.655 126.015 132.655 126.612C132.655 127.209 132.795 127.695 133.075 128.068C133.365 128.432 133.761 128.614 134.265 128.614ZM144.905 123.028C145.959 123.028 146.79 123.35 147.397 123.994C148.013 124.629 148.321 125.492 148.321 126.584C148.321 127.293 148.181 127.919 147.901 128.46C147.63 129.001 147.233 129.421 146.711 129.72C146.188 130.019 145.567 130.168 144.849 130.168C144.466 130.168 144.06 130.061 143.631 129.846V132.926L141.825 133.066V123.21H142.749L143.113 123.672C143.663 123.243 144.261 123.028 144.905 123.028ZM144.835 128.614C145.329 128.614 145.721 128.427 146.011 128.054C146.3 127.671 146.445 127.181 146.445 126.584C146.445 125.987 146.3 125.506 146.011 125.142C145.731 124.769 145.339 124.582 144.835 124.582C144.443 124.582 144.041 124.717 143.631 124.988V128.222C144.013 128.483 144.415 128.614 144.835 128.614ZM151.104 130V120.116L149.298 120.27V130H151.104ZM153.159 125.156C153.42 125.035 153.738 124.932 154.111 124.848C154.484 124.755 154.825 124.708 155.133 124.708C155.469 124.708 155.73 124.806 155.917 125.002C156.113 125.189 156.216 125.455 156.225 125.8H154.895C154.111 125.8 153.486 125.991 153.019 126.374C152.552 126.747 152.319 127.279 152.319 127.97C152.319 128.642 152.524 129.179 152.935 129.58C153.346 129.972 153.957 130.168 154.769 130.168C155.394 130.168 155.992 129.869 156.561 129.272L156.869 130H158.059V125.534C158.059 125.058 157.924 124.629 157.653 124.246C157.392 123.863 157.037 123.565 156.589 123.35C156.141 123.135 155.646 123.028 155.105 123.028C154.788 123.028 154.363 123.093 153.831 123.224C153.299 123.345 152.912 123.485 152.669 123.644L153.159 125.156ZM153.873 127.97C153.873 127.709 153.962 127.485 154.139 127.298C154.326 127.111 154.568 127.018 154.867 127.018H156.239V128.054C155.782 128.502 155.282 128.726 154.741 128.726C154.489 128.726 154.279 128.651 154.111 128.502C153.952 128.353 153.873 128.175 153.873 127.97ZM161.348 123.224V121.292L159.542 121.614V123.224H158.632V124.624H159.542V127.83C159.542 128.605 159.78 129.207 160.256 129.636C160.732 130.065 161.395 130.28 162.244 130.28C162.468 130.28 162.715 130.238 162.986 130.154C163.266 130.07 163.476 129.972 163.616 129.86L163.084 128.544C162.832 128.665 162.585 128.726 162.342 128.726C162.025 128.726 161.777 128.614 161.6 128.39C161.432 128.166 161.348 127.872 161.348 127.508V124.624H163.14L162.58 123.224H161.348ZM164.762 124.624V130H166.582V124.624H168.444L167.87 123.224H166.582V122.958C166.582 122.585 166.657 122.291 166.806 122.076C166.955 121.852 167.184 121.74 167.492 121.74C167.688 121.74 167.94 121.801 168.248 121.922L168.766 120.606C168.617 120.485 168.407 120.382 168.136 120.298C167.865 120.214 167.623 120.172 167.408 120.172C166.577 120.172 165.929 120.396 165.462 120.844C164.995 121.292 164.762 121.913 164.762 122.706V123.224H163.712V124.624H164.762ZM176.089 126.584C176.089 127.303 175.939 127.933 175.641 128.474C175.342 129.015 174.917 129.435 174.367 129.734C173.825 130.023 173.191 130.168 172.463 130.168C171.735 130.168 171.095 130.023 170.545 129.734C170.003 129.445 169.583 129.034 169.285 128.502C168.986 127.961 168.837 127.331 168.837 126.612C168.837 125.893 168.986 125.263 169.285 124.722C169.583 124.181 170.003 123.765 170.545 123.476C171.095 123.177 171.735 123.028 172.463 123.028C173.191 123.028 173.825 123.173 174.367 123.462C174.917 123.751 175.342 124.167 175.641 124.708C175.939 125.24 176.089 125.865 176.089 126.584ZM172.463 128.614C172.967 128.614 173.382 128.423 173.709 128.04C174.045 127.657 174.213 127.172 174.213 126.584C174.213 125.996 174.049 125.515 173.723 125.142C173.396 124.769 172.976 124.582 172.463 124.582C171.959 124.582 171.539 124.773 171.203 125.156C170.876 125.539 170.713 126.024 170.713 126.612C170.713 127.2 170.876 127.681 171.203 128.054C171.529 128.427 171.949 128.614 172.463 128.614ZM178.754 125.856C179.146 125.511 179.566 125.226 180.014 125.002C180.471 124.778 180.854 124.666 181.162 124.666L180.798 123.21C180.462 123.21 180.074 123.327 179.636 123.56C179.197 123.793 178.814 124.055 178.488 124.344L177.886 123.21H176.934V130H178.754V125.856ZM190.096 122.986C190.871 122.986 191.426 123.196 191.762 123.616C192.108 124.027 192.28 124.643 192.28 125.464V130H190.46V125.828C190.46 125.389 190.39 125.058 190.25 124.834C190.12 124.61 189.91 124.498 189.62 124.498C189.34 124.498 189.084 124.563 188.85 124.694C188.617 124.825 188.318 125.021 187.954 125.282V125.464V130H186.134V125.828C186.134 125.389 186.064 125.058 185.924 124.834C185.794 124.61 185.584 124.498 185.294 124.498C185.014 124.498 184.758 124.563 184.524 124.694C184.291 124.825 183.988 125.025 183.614 125.296V130H181.794V123.21H182.984L183.292 123.938C183.712 123.639 184.146 123.406 184.594 123.238C185.042 123.07 185.434 122.986 185.77 122.986C186.694 122.986 187.32 123.294 187.646 123.91C188.066 123.621 188.496 123.397 188.934 123.238C189.373 123.07 189.76 122.986 190.096 122.986Z" fill="white"/>
<defs>
<filter id="filter0_d" x="63" y="0" width="73" height="73" filterUnits="userSpaceOnUse" color-interpolation-filters="sRGB">
<feFlood flood-opacity="0" result="BackgroundImageFix"/>
<feColorMatrix in="SourceAlpha" type="matrix" values="0 0 0 0 0 0 0 0 0 0 0 0 0 0 0 0 0 0 127 0"/>
<feOffset dy="4"/>
<feGaussianBlur stdDeviation="2"/>
<feColorMatrix type="matrix" values="0 0 0 0 0 0 0 0 0 0 0 0 0 0 0 0 0 0 0.25 0"/>
<feBlend mode="normal" in2="BackgroundImageFix" result="effect1_dropShadow"/>
<feBlend mode="normal" in="SourceGraphic" in2="effect1_dropShadow" result="shape"/>
</filter>
<filter id="filter1_d" x="3.60175" y="70.2" width="192.227" height="66.816" filterUnits="userSpaceOnUse" color-interpolation-filters="sRGB">
<feFlood flood-opacity="0" result="BackgroundImageFix"/>
<feColorMatrix in="SourceAlpha" type="matrix" values="0 0 0 0 0 0 0 0 0 0 0 0 0 0 0 0 0 0 127 0"/>
<feOffset dy="4"/>
<feGaussianBlur stdDeviation="2"/>
<feColorMatrix type="matrix" values="0 0 0 0 0 0 0 0 0 0 0 0 0 0 0 0 0 0 0.25 0"/>
<feBlend mode="normal" in2="BackgroundImageFix" result="effect1_dropShadow"/>
<feBlend mode="normal" in="SourceGraphic" in2="effect1_dropShadow" result="shape"/>
</filter>
<linearGradient id="paint0_linear" x1="120.303" y1="22.2833" x2="95.374" y2="45.6391" gradientUnits="userSpaceOnUse">
<stop stop-color="white"/>
<stop offset="1" stop-color="white" stop-opacity="0"/>
</linearGradient>
<linearGradient id="paint1_linear" x1="123.832" y1="26.097" x2="98.9031" y2="49.4529" gradientUnits="userSpaceOnUse">
<stop stop-color="white"/>
<stop offset="1" stop-color="white" stop-opacity="0"/>
</linearGradient>
<linearGradient id="paint2_linear" x1="99.6721" y1="38.1804" x2="99.4169" y2="52.7933" gradientUnits="userSpaceOnUse">
<stop stop-color="white"/>
<stop offset="1" stop-color="white" stop-opacity="0"/>
</linearGradient>
<linearGradient id="paint3_linear" x1="101.01" y1="38.3635" x2="100.683" y2="50.5194" gradientUnits="userSpaceOnUse">
<stop stop-color="white"/>
<stop offset="1" stop-color="white" stop-opacity="0"/>
</linearGradient>
<linearGradient id="paint4_linear" x1="94.9053" y1="24.376" x2="80.1007" y2="38.2463" gradientUnits="userSpaceOnUse">
<stop stop-color="white"/>
<stop offset="1" stop-color="white" stop-opacity="0"/>
</linearGradient>
<linearGradient id="paint5_linear" x1="95.5564" y1="24.2624" x2="83.3416" y2="36.5428" gradientUnits="userSpaceOnUse">
<stop stop-color="white"/>
<stop offset="1" stop-color="white" stop-opacity="0"/>
</linearGradient>
<linearGradient id="paint6_linear" x1="95.4752" y1="23.376" x2="78.9488" y2="38.8594" gradientUnits="userSpaceOnUse">
<stop stop-color="white"/>
<stop offset="1" stop-color="white" stop-opacity="0"/>
</linearGradient>
<linearGradient id="paint7_linear" x1="96.5542" y1="24.3285" x2="82.9504" y2="38.0623" gradientUnits="userSpaceOnUse">
<stop stop-color="white"/>
<stop offset="1" stop-color="white" stop-opacity="0"/>
</linearGradient>
</defs>
</svg>
