<svg width="198" height="76" viewBox="0 0 198 76" fill="none" xmlns="http://www.w3.org/2000/svg">
<g filter="url(#filter0_d)">
<path d="M12.2098 17.544C13.5324 17.544 14.6418 17.096 15.5378 16.2C16.4764 15.304 16.9458 14.1947 16.9458 12.872C16.9458 11.5493 16.4764 10.44 15.5378 9.544C14.6418 8.648 13.5324 8.2 12.2098 8.2C10.9298 8.2 9.84175 8.648 8.94575 9.544C8.04975 10.44 7.60175 11.5493 7.60175 12.872C7.60175 14.1947 8.04975 15.304 8.94575 16.2C9.84175 17.096 10.9298 17.544 12.2098 17.544ZM16.4338 53V21.96H8.11375V53H16.4338ZM31.8088 31.496C33.3448 30.3867 34.7528 29.512 36.0328 28.872C37.3128 28.1893 38.6781 27.848 40.1288 27.848C41.5368 27.848 42.6248 28.3813 43.3928 29.448C44.2034 30.5147 44.6088 32.008 44.6088 33.928V53H52.9288V33.544C52.9288 29.576 52.1394 26.4827 50.5608 24.264C48.9821 22.0453 46.2301 20.936 42.3048 20.936C40.5981 20.936 38.6568 21.32 36.4808 22.088C34.3048 22.856 32.2568 23.9227 30.3368 25.288L28.9288 21.96H23.4888V53H31.8088V31.496ZM74.2028 21.128C79.0241 21.128 82.8214 22.6 85.5948 25.544C88.4108 28.4453 89.8188 32.392 89.8188 37.384C89.8188 40.6267 89.1788 43.4853 87.8988 45.96C86.6614 48.4347 84.8481 50.3547 82.4588 51.72C80.0694 53.0853 77.2321 53.768 73.9468 53.768C72.1974 53.768 70.3414 53.2773 68.3788 52.296V66.376L60.1228 67.016V21.96H64.3468L66.0108 24.072C68.5281 22.1093 71.2588 21.128 74.2028 21.128ZM73.8828 46.664C76.1441 46.664 77.9361 45.8107 79.2588 44.104C80.5814 42.3547 81.2428 40.1147 81.2428 37.384C81.2428 34.6533 80.5814 32.456 79.2588 30.792C77.9788 29.0853 76.1868 28.232 73.8828 28.232C72.0908 28.232 70.2561 28.8507 68.3788 30.088V44.872C70.1281 46.0667 71.9628 46.664 73.8828 46.664ZM103.246 34.056C105.038 32.4773 106.958 31.176 109.006 30.152C111.097 29.128 112.846 28.616 114.254 28.616L112.59 21.96C111.054 21.96 109.284 22.4933 107.278 23.56C105.273 24.6267 103.524 25.8213 102.03 27.144L99.2783 21.96H94.9263V53H103.246V34.056ZM122.522 17.544C123.845 17.544 124.954 17.096 125.85 16.2C126.789 15.304 127.258 14.1947 127.258 12.872C127.258 11.5493 126.789 10.44 125.85 9.544C124.954 8.648 123.845 8.2 122.522 8.2C121.242 8.2 120.154 8.648 119.258 9.544C118.362 10.44 117.914 11.5493 117.914 12.872C117.914 14.1947 118.362 15.304 119.258 16.2C120.154 17.096 121.242 17.544 122.522 17.544ZM126.746 53V21.96H118.426V53H126.746ZM159.145 24.392C157.695 23.4107 155.903 22.6213 153.769 22.024C151.636 21.4267 149.844 21.128 148.393 21.128C145.065 21.128 142.143 21.8107 139.625 23.176C137.151 24.4987 135.231 26.3973 133.865 28.872C132.543 31.3467 131.881 34.2267 131.881 37.512C131.881 40.7973 132.543 43.6773 133.865 46.152C135.231 48.584 137.151 50.4613 139.625 51.784C142.143 53.1067 145.065 53.768 148.393 53.768C149.972 53.768 151.828 53.4907 153.961 52.936C156.095 52.3813 157.823 51.592 159.145 50.568L156.777 44.552C155.156 45.2773 153.705 45.8107 152.425 46.152C151.145 46.4933 149.823 46.664 148.457 46.664C146.111 46.664 144.191 45.8107 142.697 44.104C141.204 42.3973 140.457 40.2 140.457 37.512C140.457 34.824 141.204 32.6053 142.697 30.856C144.233 29.1067 146.153 28.232 148.457 28.232C149.823 28.232 151.145 28.4027 152.425 28.744C153.705 29.0853 155.156 29.6187 156.777 30.344L159.145 24.392ZM191.829 37.384C191.829 34.3547 191.317 31.624 190.293 29.192C189.269 26.7173 187.69 24.7547 185.557 23.304C183.423 21.8533 180.799 21.128 177.685 21.128C174.485 21.128 171.711 21.8107 169.365 23.176C167.018 24.4987 165.205 26.3973 163.925 28.872C162.687 31.3467 162.069 34.2267 162.069 37.512C162.069 42.5893 163.583 46.5787 166.613 49.48C169.685 52.3387 174.165 53.768 180.053 53.768C182.57 53.768 184.746 53.448 186.581 52.808C188.415 52.1253 190.122 51.1653 191.701 49.928L189.269 43.912C187.69 44.808 186.218 45.4907 184.853 45.96C183.487 46.4293 181.951 46.664 180.245 46.664C177.301 46.664 175.103 46.088 173.653 44.936C172.245 43.784 171.327 42.12 170.901 39.944H191.829V37.384ZM170.965 34.376C171.306 32.3707 172.053 30.856 173.205 29.832C174.357 28.7653 175.786 28.232 177.493 28.232C179.199 28.232 180.586 28.744 181.653 29.768C182.762 30.792 183.53 32.328 183.957 34.376H170.965Z" fill="white"/>
</g>
<path d="M81.072 60.986C81.8467 60.986 82.402 61.196 82.738 61.616C83.0833 62.0267 83.256 62.6427 83.256 63.464V68H81.436V63.828C81.436 63.3893 81.366 63.058 81.226 62.834C81.0953 62.61 80.8853 62.498 80.596 62.498C80.316 62.498 80.0593 62.5633 79.826 62.694C79.5927 62.8247 79.294 63.0207 78.93 63.282V63.464V68H77.11V63.828C77.11 63.3893 77.04 63.058 76.9 62.834C76.7693 62.61 76.5593 62.498 76.27 62.498C75.99 62.498 75.7333 62.5633 75.5 62.694C75.2667 62.8247 74.9633 63.0253 74.59 63.296V68H72.77V61.21H73.96L74.268 61.938C74.688 61.6393 75.122 61.406 75.57 61.238C76.018 61.07 76.41 60.986 76.746 60.986C77.67 60.986 78.2953 61.294 78.622 61.91C79.042 61.6207 79.4713 61.3967 79.91 61.238C80.3487 61.07 80.736 60.986 81.072 60.986ZM91.2986 64.584C91.2986 65.3027 91.1492 65.9327 90.8506 66.474C90.5519 67.0153 90.1272 67.4353 89.5766 67.734C89.0352 68.0233 88.4006 68.168 87.6726 68.168C86.9446 68.168 86.3052 68.0233 85.7546 67.734C85.2132 67.4447 84.7932 67.034 84.4946 66.502C84.1959 65.9607 84.0466 65.3307 84.0466 64.612C84.0466 63.8933 84.1959 63.2633 84.4946 62.722C84.7932 62.1807 85.2132 61.7653 85.7546 61.476C86.3052 61.1773 86.9446 61.028 87.6726 61.028C88.4006 61.028 89.0352 61.1727 89.5766 61.462C90.1272 61.7513 90.5519 62.1667 90.8506 62.708C91.1492 63.24 91.2986 63.8653 91.2986 64.584ZM87.6726 66.614C88.1766 66.614 88.5919 66.4227 88.9186 66.04C89.2546 65.6573 89.4226 65.172 89.4226 64.584C89.4226 63.996 89.2592 63.5153 88.9326 63.142C88.6059 62.7687 88.1859 62.582 87.6726 62.582C87.1686 62.582 86.7486 62.7733 86.4126 63.156C86.0859 63.5387 85.9226 64.024 85.9226 64.612C85.9226 65.2 86.0859 65.6807 86.4126 66.054C86.7392 66.4273 87.1592 66.614 87.6726 66.614ZM93.9636 63.296C94.2996 63.0533 94.6076 62.862 94.8876 62.722C95.1676 62.5727 95.4663 62.498 95.7836 62.498C96.0916 62.498 96.3296 62.6147 96.4976 62.848C96.6749 63.0813 96.7636 63.408 96.7636 63.828V68H98.5836V63.744C98.5836 62.876 98.4109 62.1993 98.0656 61.714C97.7203 61.2287 97.1183 60.986 96.2596 60.986C95.8863 60.986 95.4616 61.07 94.9856 61.238C94.5096 61.406 94.0616 61.6393 93.6416 61.938L93.3336 61.21H92.1436V68H93.9636V63.296ZM100.689 60.244C100.979 60.244 101.221 60.146 101.417 59.95C101.623 59.754 101.725 59.5113 101.725 59.222C101.725 58.9327 101.623 58.69 101.417 58.494C101.221 58.298 100.979 58.2 100.689 58.2C100.409 58.2 100.171 58.298 99.9753 58.494C99.7793 58.69 99.6813 58.9327 99.6813 59.222C99.6813 59.5113 99.7793 59.754 99.9753 59.95C100.171 60.146 100.409 60.244 100.689 60.244ZM101.613 68V61.21H99.7933V68H101.613ZM104.963 61.224V59.292L103.157 59.614V61.224H102.247V62.624H103.157V65.83C103.157 66.6047 103.395 67.2067 103.871 67.636C104.347 68.0653 105.009 68.28 105.859 68.28C106.083 68.28 106.33 68.238 106.601 68.154C106.881 68.07 107.091 67.972 107.231 67.86L106.699 66.544C106.447 66.6653 106.199 66.726 105.957 66.726C105.639 66.726 105.392 66.614 105.215 66.39C105.047 66.166 104.963 65.872 104.963 65.508V62.624H106.755L106.195 61.224H104.963ZM114.761 64.584C114.761 65.3027 114.611 65.9327 114.313 66.474C114.014 67.0153 113.589 67.4353 113.039 67.734C112.497 68.0233 111.863 68.168 111.135 68.168C110.407 68.168 109.767 68.0233 109.217 67.734C108.675 67.4447 108.255 67.034 107.957 66.502C107.658 65.9607 107.509 65.3307 107.509 64.612C107.509 63.8933 107.658 63.2633 107.957 62.722C108.255 62.1807 108.675 61.7653 109.217 61.476C109.767 61.1773 110.407 61.028 111.135 61.028C111.863 61.028 112.497 61.1727 113.039 61.462C113.589 61.7513 114.014 62.1667 114.313 62.708C114.611 63.24 114.761 63.8653 114.761 64.584ZM111.135 66.614C111.639 66.614 112.054 66.4227 112.381 66.04C112.717 65.6573 112.885 65.172 112.885 64.584C112.885 63.996 112.721 63.5153 112.395 63.142C112.068 62.7687 111.648 62.582 111.135 62.582C110.631 62.582 110.211 62.7733 109.875 63.156C109.548 63.5387 109.385 64.024 109.385 64.612C109.385 65.2 109.548 65.6807 109.875 66.054C110.201 66.4273 110.621 66.614 111.135 66.614ZM117.426 63.856C117.818 63.5107 118.238 63.226 118.686 63.002C119.143 62.778 119.526 62.666 119.834 62.666L119.47 61.21C119.134 61.21 118.746 61.3267 118.308 61.56C117.869 61.7933 117.486 62.0547 117.16 62.344L116.558 61.21H115.606V68H117.426V63.856ZM121.362 60.244C121.652 60.244 121.894 60.146 122.09 59.95C122.296 59.754 122.398 59.5113 122.398 59.222C122.398 58.9327 122.296 58.69 122.09 58.494C121.894 58.298 121.652 58.2 121.362 58.2C121.082 58.2 120.844 58.298 120.648 58.494C120.452 58.69 120.354 58.9327 120.354 59.222C120.354 59.5113 120.452 59.754 120.648 59.95C120.844 60.146 121.082 60.244 121.362 60.244ZM122.286 68V61.21H120.466V68H122.286ZM125.37 63.296C125.706 63.0533 126.014 62.862 126.294 62.722C126.574 62.5727 126.872 62.498 127.19 62.498C127.498 62.498 127.736 62.6147 127.904 62.848C128.081 63.0813 128.17 63.408 128.17 63.828V68H129.99V63.744C129.99 62.876 129.817 62.1993 129.472 61.714C129.126 61.2287 128.524 60.986 127.666 60.986C127.292 60.986 126.868 61.07 126.392 61.238C125.916 61.406 125.468 61.6393 125.048 61.938L124.74 61.21H123.55V68H125.37V63.296ZM137.527 61.21V68.322C137.527 69.2553 137.201 69.9693 136.547 70.464C135.894 70.968 135.017 71.22 133.915 71.22C133.57 71.22 133.103 71.1453 132.515 70.996C131.927 70.856 131.47 70.674 131.143 70.45L131.689 69.162C132.109 69.3673 132.492 69.5167 132.837 69.61C133.183 69.7033 133.528 69.7547 133.873 69.764C134.424 69.7547 134.863 69.6193 135.189 69.358C135.525 69.0967 135.693 68.7467 135.693 68.308V67.734C135.227 68.0233 134.727 68.168 134.195 68.168C133.141 68.168 132.305 67.8507 131.689 67.216C131.083 66.572 130.779 65.704 130.779 64.612C130.779 63.9027 130.915 63.2773 131.185 62.736C131.465 62.1947 131.867 61.7747 132.389 61.476C132.912 61.1773 133.533 61.028 134.251 61.028C134.559 61.028 134.886 61.1027 135.231 61.252C135.586 61.4013 135.899 61.5927 136.169 61.826L136.575 61.21H137.527ZM134.265 66.614C134.508 66.614 134.741 66.5673 134.965 66.474C135.199 66.3807 135.441 66.2407 135.693 66.054V63.156C135.451 62.9507 135.217 62.806 134.993 62.722C134.769 62.6287 134.527 62.582 134.265 62.582C133.771 62.582 133.379 62.7733 133.089 63.156C132.8 63.5293 132.655 64.0147 132.655 64.612C132.655 65.2093 132.795 65.6947 133.075 66.068C133.365 66.432 133.761 66.614 134.265 66.614ZM144.905 61.028C145.959 61.028 146.79 61.35 147.397 61.994C148.013 62.6287 148.321 63.492 148.321 64.584C148.321 65.2933 148.181 65.9187 147.901 66.46C147.63 67.0013 147.233 67.4213 146.711 67.72C146.188 68.0187 145.567 68.168 144.849 68.168C144.466 68.168 144.06 68.0607 143.631 67.846V70.926L141.825 71.066V61.21H142.749L143.113 61.672C143.663 61.2427 144.261 61.028 144.905 61.028ZM144.835 66.614C145.329 66.614 145.721 66.4273 146.011 66.054C146.3 65.6713 146.445 65.1813 146.445 64.584C146.445 63.9867 146.3 63.506 146.011 63.142C145.731 62.7687 145.339 62.582 144.835 62.582C144.443 62.582 144.041 62.7173 143.631 62.988V66.222C144.013 66.4833 144.415 66.614 144.835 66.614ZM151.104 68V58.116L149.298 58.27V68H151.104ZM153.159 63.156C153.42 63.0347 153.738 62.932 154.111 62.848C154.484 62.7547 154.825 62.708 155.133 62.708C155.469 62.708 155.73 62.806 155.917 63.002C156.113 63.1887 156.216 63.4547 156.225 63.8H154.895C154.111 63.8 153.486 63.9913 153.019 64.374C152.552 64.7473 152.319 65.2793 152.319 65.97C152.319 66.642 152.524 67.1787 152.935 67.58C153.346 67.972 153.957 68.168 154.769 68.168C155.394 68.168 155.992 67.8693 156.561 67.272L156.869 68H158.059V63.534C158.059 63.058 157.924 62.6287 157.653 62.246C157.392 61.8633 157.037 61.5647 156.589 61.35C156.141 61.1353 155.646 61.028 155.105 61.028C154.788 61.028 154.363 61.0933 153.831 61.224C153.299 61.3453 152.912 61.4853 152.669 61.644L153.159 63.156ZM153.873 65.97C153.873 65.7087 153.962 65.4847 154.139 65.298C154.326 65.1113 154.568 65.018 154.867 65.018H156.239V66.054C155.782 66.502 155.282 66.726 154.741 66.726C154.489 66.726 154.279 66.6513 154.111 66.502C153.952 66.3527 153.873 66.1753 153.873 65.97ZM161.348 61.224V59.292L159.542 59.614V61.224H158.632V62.624H159.542V65.83C159.542 66.6047 159.78 67.2067 160.256 67.636C160.732 68.0653 161.395 68.28 162.244 68.28C162.468 68.28 162.715 68.238 162.986 68.154C163.266 68.07 163.476 67.972 163.616 67.86L163.084 66.544C162.832 66.6653 162.585 66.726 162.342 66.726C162.025 66.726 161.777 66.614 161.6 66.39C161.432 66.166 161.348 65.872 161.348 65.508V62.624H163.14L162.58 61.224H161.348ZM164.762 62.624V68H166.582V62.624H168.444L167.87 61.224H166.582V60.958C166.582 60.5847 166.657 60.2907 166.806 60.076C166.955 59.852 167.184 59.74 167.492 59.74C167.688 59.74 167.94 59.8007 168.248 59.922L168.766 58.606C168.617 58.4847 168.407 58.382 168.136 58.298C167.865 58.214 167.623 58.172 167.408 58.172C166.577 58.172 165.929 58.396 165.462 58.844C164.995 59.292 164.762 59.9127 164.762 60.706V61.224H163.712V62.624H164.762ZM176.089 64.584C176.089 65.3027 175.939 65.9327 175.641 66.474C175.342 67.0153 174.917 67.4353 174.367 67.734C173.825 68.0233 173.191 68.168 172.463 68.168C171.735 68.168 171.095 68.0233 170.545 67.734C170.003 67.4447 169.583 67.034 169.285 66.502C168.986 65.9607 168.837 65.3307 168.837 64.612C168.837 63.8933 168.986 63.2633 169.285 62.722C169.583 62.1807 170.003 61.7653 170.545 61.476C171.095 61.1773 171.735 61.028 172.463 61.028C173.191 61.028 173.825 61.1727 174.367 61.462C174.917 61.7513 175.342 62.1667 175.641 62.708C175.939 63.24 176.089 63.8653 176.089 64.584ZM172.463 66.614C172.967 66.614 173.382 66.4227 173.709 66.04C174.045 65.6573 174.213 65.172 174.213 64.584C174.213 63.996 174.049 63.5153 173.723 63.142C173.396 62.7687 172.976 62.582 172.463 62.582C171.959 62.582 171.539 62.7733 171.203 63.156C170.876 63.5387 170.713 64.024 170.713 64.612C170.713 65.2 170.876 65.6807 171.203 66.054C171.529 66.4273 171.949 66.614 172.463 66.614ZM178.754 63.856C179.146 63.5107 179.566 63.226 180.014 63.002C180.471 62.778 180.854 62.666 181.162 62.666L180.798 61.21C180.462 61.21 180.074 61.3267 179.636 61.56C179.197 61.7933 178.814 62.0547 178.488 62.344L177.886 61.21H176.934V68H178.754V63.856ZM190.096 60.986C190.871 60.986 191.426 61.196 191.762 61.616C192.108 62.0267 192.28 62.6427 192.28 63.464V68H190.46V63.828C190.46 63.3893 190.39 63.058 190.25 62.834C190.12 62.61 189.91 62.498 189.62 62.498C189.34 62.498 189.084 62.5633 188.85 62.694C188.617 62.8247 188.318 63.0207 187.954 63.282V63.464V68H186.134V63.828C186.134 63.3893 186.064 63.058 185.924 62.834C185.794 62.61 185.584 62.498 185.294 62.498C185.014 62.498 184.758 62.5633 184.524 62.694C184.291 62.8247 183.988 63.0253 183.614 63.296V68H181.794V61.21H182.984L183.292 61.938C183.712 61.6393 184.146 61.406 184.594 61.238C185.042 61.07 185.434 60.986 185.77 60.986C186.694 60.986 187.32 61.294 187.646 61.91C188.066 61.6207 188.496 61.3967 188.934 61.238C189.373 61.07 189.76 60.986 190.096 60.986Z" fill="white"/>
<defs>
<filter id="filter0_d" x="3.60175" y="8.19995" width="192.227" height="66.816" filterUnits="userSpaceOnUse" color-interpolation-filters="sRGB">
<feFlood flood-opacity="0" result="BackgroundImageFix"/>
<feColorMatrix in="SourceAlpha" type="matrix" values="0 0 0 0 0 0 0 0 0 0 0 0 0 0 0 0 0 0 127 0"/>
<feOffset dy="4"/>
<feGaussianBlur stdDeviation="2"/>
<feColorMatrix type="matrix" values="0 0 0 0 0 0 0 0 0 0 0 0 0 0 0 0 0 0 0.25 0"/>
<feBlend mode="normal" in2="BackgroundImageFix" result="effect1_dropShadow"/>
<feBlend mode="normal" in="SourceGraphic" in2="effect1_dropShadow" result="shape"/>
</filter>
</defs>
</svg>
