<svg xmlns="http://www.w3.org/2000/svg" xmlns:xlink="http://www.w3.org/1999/xlink" viewBox="0 0 366.77 110.62"><defs><style>.cls-1{fill:#333;}.cls-2{fill:url(#linear-gradient);}</style><linearGradient id="linear-gradient" x1="-2313.8" y1="2225.02" x2="-2312.45" y2="2225.99" gradientTransform="matrix(63.87, 0, 0, -89.63, 147785.39, 199518.08)" gradientUnits="userSpaceOnUse"><stop offset="0" stop-color="#ffc91e"/><stop offset="1" stop-color="#f05"/></linearGradient></defs><g id="Layer_2" data-name="Layer 2"><g id="Layer_1-2" data-name="Layer 1"><g id="Group_23" data-name="Group 23"><g id="Group_3" data-name="Group 3"><path id="Path_24" data-name="Path 24" class="cls-1" d="M119,23.49a5.35,5.35,0,0,1-1.68,3.92,5.46,5.46,0,0,1-3.74,1.44h-2.67a5.27,5.27,0,0,1-5.36-5.18V20.82A5.38,5.38,0,0,1,107,17.08a5.22,5.22,0,0,1,3.92-1.7h2.67A5.31,5.31,0,0,1,117.43,17,5.48,5.48,0,0,1,119,20.82"/><path id="Path_25" data-name="Path 25" class="cls-1" d="M113,80.15h-1.36a6,6,0,0,1-6.07-5.9V36.34a6,6,0,0,1,5.84-6.05H113a6,6,0,0,1,6.07,5.9V74.1a5.94,5.94,0,0,1-5.84,6.05Z"/><path id="Path_26" data-name="Path 26" class="cls-1" d="M162.58,80.15h-1.36a5.94,5.94,0,0,1-6.07-5.82V52c0-3.14-.68-5.55-2.06-7.14-.45-.53-1.81-2.1-5.76-2.1a7.68,7.68,0,0,0-6,2.28,9.57,9.57,0,0,0-2.25,7V74.1a6,6,0,0,1-5.9,6.07h-1.53a6,6,0,0,1-6.07-5.91V36.35a5.94,5.94,0,0,1,5.84-6.05h1.59a6,6,0,0,1,4.32,1.75l0,0c.16-.08.29-.19.45-.26a23.37,23.37,0,0,1,21.63.73,18.66,18.66,0,0,1,7,8.21,26.37,26.37,0,0,1,2.17,10.83V74.12a5.86,5.86,0,0,1-5.7,6h-.35Z"/><path id="Path_27" data-name="Path 27" class="cls-1" d="M182.12,95.22h-1.36a6,6,0,0,1-6.07-5.91v-53a6,6,0,0,1,5.84-6h1.59A6,6,0,0,1,186.44,32s0,.05.05.05l.47-.26a20.8,20.8,0,0,1,10.23-2.33A21.31,21.31,0,0,1,207,31.6a18.9,18.9,0,0,1,6.67,5.6,23.47,23.47,0,0,1,3.61,7.4,31.38,31.38,0,0,1,1.2,7.82c.05.87.08,1.81.08,2.8s0,1.94-.08,2.8a31.31,31.31,0,0,1-1.2,7.82,23.62,23.62,0,0,1-3.61,7.41,18.9,18.9,0,0,1-6.67,5.6,24,24,0,0,1-18.81.34v10a6,6,0,0,1-1.75,4.32A5.92,5.92,0,0,1,182.12,95.22Zm14.6-52.51A7.68,7.68,0,0,0,192.06,44a8.23,8.23,0,0,0-2.71,3.56,15.1,15.1,0,0,0-1.15,5v.08c-.06.68-.08,1.62-.08,2.8s0,2.12.08,2.8v.18A11.31,11.31,0,0,0,189.3,63a8.54,8.54,0,0,0,2.82,3.45,7.52,7.52,0,0,0,4.63,1.24,7.83,7.83,0,0,0,4.76-1.18,7.05,7.05,0,0,0,2.43-3.43,19.18,19.18,0,0,0,1.1-5.86c.06-1.36.06-2.75,0-4.11a19.92,19.92,0,0,0-1.1-5.86,7.32,7.32,0,0,0-2.43-3.42,8.39,8.39,0,0,0-4.79-1.14Z"/><path id="Path_28" data-name="Path 28" class="cls-1" d="M230.73,80.15h-1.28a6,6,0,0,1-6.07-5.9V36.41a6,6,0,0,1,6.06-6.15h1.28A6.2,6.2,0,0,1,235,31.93a19.3,19.3,0,0,1,8.34-1.67h2.93a6,6,0,0,1,6.07,5.9v1.27a6,6,0,0,1-5.9,6.07h-3.57a5.34,5.34,0,0,0-6,4.59,5.47,5.47,0,0,0,0,1.4V74.08A6,6,0,0,1,235,78.52,6.08,6.08,0,0,1,230.73,80.15Z"/><path id="Path_29" data-name="Path 29" class="cls-1" d="M264.37,28.85H261.7a5.27,5.27,0,0,1-5.36-5.18V20.82a5.38,5.38,0,0,1,1.44-3.74,5.22,5.22,0,0,1,3.92-1.7h2.67A5.31,5.31,0,0,1,268.22,17a5.48,5.48,0,0,1,1.57,3.87v2.67a5.35,5.35,0,0,1-1.68,3.92A5.44,5.44,0,0,1,264.37,28.85Z"/><path id="Path_30" data-name="Path 30" class="cls-1" d="M263.74,80.15h-1.36a6,6,0,0,1-6.06-5.9.49.49,0,0,1,0-.17V36.34a5.94,5.94,0,0,1,5.83-6.05h1.59a6,6,0,0,1,6.07,5.9V74.1A5.94,5.94,0,0,1,264,80.15Z"/><path id="Path_31" data-name="Path 31" class="cls-1" d="M297.44,81a23.58,23.58,0,0,1-11.56-2.71,18.53,18.53,0,0,1-7.67-8.17,27.84,27.84,0,0,1-2.62-11.46c0-.88-.07-2-.07-3.37s0-2.51.07-3.37a28.07,28.07,0,0,1,2.62-11.51,18.5,18.5,0,0,1,7.67-8.11,23.38,23.38,0,0,1,11.56-2.75A24.45,24.45,0,0,1,306.2,31a19.07,19.07,0,0,1,6.46,3.9,17.37,17.37,0,0,1,4,5.41,16,16,0,0,1,1.52,5.91,5.77,5.77,0,0,1-2,4.82,6.17,6.17,0,0,1-4.08,1.51H311a5.8,5.8,0,0,1-4.21-1.62,7.9,7.9,0,0,1-1.67-2.69l-.05-.16a8.06,8.06,0,0,0-2.78-4.13,9,9,0,0,0-4.84-1.15,8.5,8.5,0,0,0-6,2.11c-1.83,1.71-2.3,5.16-2.4,7.72v.11a38.68,38.68,0,0,0,0,5.05v.1c.07,2.59.57,6,2.4,7.72a8.4,8.4,0,0,0,6,2.14,9.08,9.08,0,0,0,4.84-1.15,8.1,8.1,0,0,0,2.78-4.13l.05-.16a8.16,8.16,0,0,1,1.67-2.69A5.8,5.8,0,0,1,311,57.94h1.1a6.23,6.23,0,0,1,4.08,1.52,5.7,5.7,0,0,1,2,4.84,15.61,15.61,0,0,1-1,4.68,17,17,0,0,1-2.62,4.61,18.24,18.24,0,0,1-4.21,3.87,20.11,20.11,0,0,1-5.79,2.59A26.59,26.59,0,0,1,297.44,81Z"/><path id="Path_32" data-name="Path 32" class="cls-1" d="M345,81a19.85,19.85,0,0,1-15.44-6.46,26,26,0,0,1-6.25-15.75v0c-.05-.89-.08-2-.08-3.46s0-2.56.08-3.45v0a28.77,28.77,0,0,1,3-11.2,20.22,20.22,0,0,1,7.48-8.11,21.27,21.27,0,0,1,11.17-2.93,21.59,21.59,0,0,1,11.75,3.14,20.25,20.25,0,0,1,7.61,8.92,22.35,22.35,0,0,1,2.48,10.91v.92a6.61,6.61,0,0,1-1.91,4.71,5.45,5.45,0,0,1-4.1,1.35H336.86A13,13,0,0,0,338,63a9.28,9.28,0,0,0,2.9,3.58,6.62,6.62,0,0,0,4.06,1.2,9.16,9.16,0,0,0,3.87-.65,10.59,10.59,0,0,0,2.49-1.52,14.28,14.28,0,0,0,1-1l.08-.1c1.41-2,3.79-2.28,5.94-2.22a14.39,14.39,0,0,1,4.18.62,4.46,4.46,0,0,1,3,4.56h0a9.7,9.7,0,0,1-2,4.91,19.22,19.22,0,0,1-4.19,4.16A22,22,0,0,1,353,79.75,27,27,0,0,1,345,81Zm-7.67-32.52h15.44a8.37,8.37,0,0,0-.52-1.28,7.5,7.5,0,0,0-7.31-4.42,7.3,7.3,0,0,0-7.14,4.39c-.16.4-.31.84-.47,1.31Z"/></g><path id="Path_33" data-name="Path 33" class="cls-2" d="M8.33,95A68,68,0,0,1,0,99.48a39,39,0,0,0,5.39-7.42ZM78.25,54.4A25.14,25.14,0,0,1,73.45,66V44.9A6.43,6.43,0,0,0,67,38.47H42.82a6.36,6.36,0,0,0-4.55,1.88l-27.94,28c.1-1,.23-1.92.39-2.81C14.44,45.73,26.42,36.13,31.25,33a27.18,27.18,0,0,1-.55-5.9c.3-12.54,3.21-14.92,3.21-14.92s1.41,2.51,3.46,1.55c-3.49-2.13-6.3-4.92-6.67-8.41A11.37,11.37,0,0,0,42.17,3.8a21.83,21.83,0,0,1,24.62,0A11.37,11.37,0,0,0,78.26,5.32c-.36,3.49-3.19,6.26-6.66,8.41,2.05,1,3.45-1.55,3.45-1.55S78,14.56,78.26,27.1a33.21,33.21,0,0,1-3.8,15.12c.73-.2,1.69-.92,2.61-3.08,0,0,3,.69,1.18,15.26ZM49.82,24.57c1.79-2.9,1.29-4.85,1-5.5-1-.23-2.37-.63-4-1.16a5,5,0,0,1,1.11,3.16,5.42,5.42,0,1,1-6.34-5.14c-.66-.3-1.34-.62-2-.94a7.71,7.71,0,0,0-3.85,7.75c.89,5.9,11.13,6.61,14.07,1.83Zm4.65,0c-1,.11-3.79.59-3.61,2.48s2.65,6.28,3.61,8c1-1.68,3.43-6.1,3.6-8s-2.56-2.37-3.6-2.48ZM69.36,15c-.67.33-1.33.64-2,.94A5.24,5.24,0,1,1,61,21.07a5,5,0,0,1,1.11-3.15c-1.65.52-3.06.9-4,1.15-.27.65-.77,2.58,1,5.51,2.92,4.77,13.19,4,14.06-1.84A7.71,7.71,0,0,0,69.36,15ZM9.67,96.36A90.58,90.58,0,0,1,8,108.74a62.4,62.4,0,0,0,7-7.08ZM70.78,44.9V69.11a3.78,3.78,0,0,1-1.1,2.64L31.92,109.53a3.69,3.69,0,0,1-2.64,1.09,3.73,3.73,0,0,1-2.64-1.09L2.43,85.32a3.74,3.74,0,0,1,0-5.29L40.19,42.26a3.69,3.69,0,0,1,2.64-1.09H67a3.73,3.73,0,0,1,3.74,3.72Zm-7.41,3.7a4.7,4.7,0,1,0,0,6.65h0a4.7,4.7,0,0,0,0-6.65Z"/></g></g></g></svg>