<svg width="268" height="78" viewBox="0 0 268 78" fill="none" xmlns="http://www.w3.org/2000/svg">
<g filter="url(#filter0_d)">
<circle cx="231.5" cy="37.5" r="32.5" fill="#006B72"/>
<circle cx="231.5" cy="37.5" r="31" stroke="#DCE1EB" stroke-width="3"/>
</g>
<path d="M254.65 29.7886L249.956 24.778L239.998 24.6525L220.223 43.0067L234.307 58.0386L254.081 39.6844L254.65 29.7886ZM245.16 33.9131C244.01 32.6853 244.138 30.706 245.446 29.4918C246.754 28.2776 248.747 28.2886 249.897 29.5165C251.047 30.7443 250.919 32.7236 249.611 33.9378C248.303 35.152 246.31 35.141 245.16 33.9131Z" fill="white" stroke="url(#paint0_linear)" stroke-width="2"/>
<path d="M254.075 39.7247L254.674 29.8606L252.326 27.3545L249.919 29.5883C249.925 29.5937 249.93 29.5989 249.935 29.6044C251.078 30.8245 250.945 32.7975 249.636 34.0117C248.328 35.2259 246.342 35.2211 245.198 34.0011C245.193 33.9956 245.188 33.9898 245.183 33.9838L227.288 50.5939L234.3 58.0789L254.075 39.7247Z" fill="#DCE1EB" stroke="url(#paint1_linear)" stroke-width="2"/>
<path d="M223.648 47.6108L228.704 43.1285L239.373 53.3617L234.317 57.8439L223.648 47.6108Z" fill="#FFDA00" stroke="url(#paint2_linear)" stroke-width="2"/>
<path d="M226.353 45.2994L228.712 43.2476L239.284 53.5815L236.924 55.6337L226.353 45.2994Z" fill="#FFBC36" stroke="url(#paint3_linear)" stroke-width="2"/>
<path d="M226.991 44.3039C222.885 48.115 216.19 47.6106 212.036 43.1773C207.882 38.7436 207.844 32.0603 211.95 28.2492C216.056 24.4381 222.752 24.9425 226.905 29.3761C231.059 33.8094 231.097 40.4928 226.991 44.3039Z" fill="#64E1DC" stroke="url(#paint4_linear)" stroke-width="2"/>
<path d="M227.028 43.0437C230.997 39.0903 230.723 32.4124 226.416 28.1282C224.261 25.9843 221.504 24.8461 218.789 24.7394L219.655 45.8331C222.369 45.9433 225.042 45.0221 227.028 43.0437Z" fill="#00C8C8" stroke="url(#paint5_linear)" stroke-width="2"/>
<path d="M210.876 43.7822C206.228 38.8211 206.17 31.3293 210.746 27.0818C215.323 22.8343 222.827 23.4148 227.475 28.376C232.123 33.3368 232.182 40.8289 227.605 45.0764C223.029 49.324 215.525 48.7434 210.876 43.7822ZM225.746 29.9811C222.066 26.0535 216.125 25.5942 212.503 28.9566C208.88 32.3189 208.926 38.2495 212.606 42.1771C216.285 46.1044 222.226 46.564 225.849 43.2016C229.471 39.8393 229.425 33.9084 225.746 29.9811Z" fill="#00C8C8" stroke="url(#paint6_linear)" stroke-width="2"/>
<path d="M225.609 29.7319C229.417 33.5038 229.671 39.4163 226.177 42.9115C224.428 44.6608 222.066 45.4781 219.666 45.3854L219.771 47.8373C222.803 47.9542 225.786 46.9216 227.995 44.7121C232.409 40.2968 232.087 32.8279 227.277 28.0634C224.87 25.679 221.788 24.4167 218.757 24.3036L218.862 26.7555C221.263 26.845 223.703 27.8442 225.609 29.7319Z" fill="#1CADB5" stroke="url(#paint7_linear)" stroke-width="2"/>
<g filter="url(#filter1_d)">
<path d="M8.616 17.544C9.93867 17.544 11.048 17.096 11.944 16.2C12.8827 15.304 13.352 14.1947 13.352 12.872C13.352 11.5493 12.8827 10.44 11.944 9.544C11.048 8.648 9.93867 8.2 8.616 8.2C7.336 8.2 6.248 8.648 5.352 9.544C4.456 10.44 4.008 11.5493 4.008 12.872C4.008 14.1947 4.456 15.304 5.352 16.2C6.248 17.096 7.336 17.544 8.616 17.544ZM12.84 53V21.96H4.52V53H12.84ZM28.215 31.496C29.751 30.3867 31.159 29.512 32.439 28.872C33.719 28.1893 35.0843 27.848 36.535 27.848C37.943 27.848 39.031 28.3813 39.799 29.448C40.6097 30.5147 41.015 32.008 41.015 33.928V53H49.335V33.544C49.335 29.576 48.5457 26.4827 46.967 24.264C45.3883 22.0453 42.6363 20.936 38.711 20.936C37.0043 20.936 35.063 21.32 32.887 22.088C30.711 22.856 28.663 23.9227 26.743 25.288L25.335 21.96H19.895V53H28.215V31.496ZM70.609 21.128C75.4303 21.128 79.2277 22.6 82.001 25.544C84.817 28.4453 86.225 32.392 86.225 37.384C86.225 40.6267 85.585 43.4853 84.305 45.96C83.0677 48.4347 81.2543 50.3547 78.865 51.72C76.4757 53.0853 73.6383 53.768 70.353 53.768C68.6037 53.768 66.7477 53.2773 64.785 52.296V66.376L56.529 67.016V21.96H60.753L62.417 24.072C64.9343 22.1093 67.665 21.128 70.609 21.128ZM70.289 46.664C72.5503 46.664 74.3423 45.8107 75.665 44.104C76.9877 42.3547 77.649 40.1147 77.649 37.384C77.649 34.6533 76.9877 32.456 75.665 30.792C74.385 29.0853 72.593 28.232 70.289 28.232C68.497 28.232 66.6623 28.8507 64.785 30.088V44.872C66.5343 46.0667 68.369 46.664 70.289 46.664ZM99.6525 34.056C101.445 32.4773 103.365 31.176 105.413 30.152C107.503 29.128 109.253 28.616 110.661 28.616L108.997 21.96C107.461 21.96 105.69 22.4933 103.685 23.56C101.679 24.6267 99.9298 25.8213 98.4365 27.144L95.6845 21.96H91.3325V53H99.6525V34.056ZM118.929 17.544C120.251 17.544 121.361 17.096 122.257 16.2C123.195 15.304 123.665 14.1947 123.665 12.872C123.665 11.5493 123.195 10.44 122.257 9.544C121.361 8.648 120.251 8.2 118.929 8.2C117.649 8.2 116.561 8.648 115.665 9.544C114.769 10.44 114.321 11.5493 114.321 12.872C114.321 14.1947 114.769 15.304 115.665 16.2C116.561 17.096 117.649 17.544 118.929 17.544ZM123.153 53V21.96H114.833V53H123.153ZM155.552 24.392C154.101 23.4107 152.309 22.6213 150.176 22.024C148.042 21.4267 146.25 21.128 144.8 21.128C141.472 21.128 138.549 21.8107 136.032 23.176C133.557 24.4987 131.637 26.3973 130.272 28.872C128.949 31.3467 128.288 34.2267 128.288 37.512C128.288 40.7973 128.949 43.6773 130.272 46.152C131.637 48.584 133.557 50.4613 136.032 51.784C138.549 53.1067 141.472 53.768 144.8 53.768C146.378 53.768 148.234 53.4907 150.368 52.936C152.501 52.3813 154.229 51.592 155.552 50.568L153.184 44.552C151.562 45.2773 150.112 45.8107 148.832 46.152C147.552 46.4933 146.229 46.664 144.864 46.664C142.517 46.664 140.597 45.8107 139.104 44.104C137.61 42.3973 136.864 40.2 136.864 37.512C136.864 34.824 137.61 32.6053 139.104 30.856C140.64 29.1067 142.56 28.232 144.864 28.232C146.229 28.232 147.552 28.4027 148.832 28.744C150.112 29.0853 151.562 29.6187 153.184 30.344L155.552 24.392ZM188.235 37.384C188.235 34.3547 187.723 31.624 186.699 29.192C185.675 26.7173 184.096 24.7547 181.963 23.304C179.83 21.8533 177.206 21.128 174.091 21.128C170.891 21.128 168.118 21.8107 165.771 23.176C163.424 24.4987 161.611 26.3973 160.331 28.872C159.094 31.3467 158.475 34.2267 158.475 37.512C158.475 42.5893 159.99 46.5787 163.019 49.48C166.091 52.3387 170.571 53.768 176.459 53.768C178.976 53.768 181.152 53.448 182.987 52.808C184.822 52.1253 186.528 51.1653 188.107 49.928L185.675 43.912C184.096 44.808 182.624 45.4907 181.259 45.96C179.894 46.4293 178.358 46.664 176.651 46.664C173.707 46.664 171.51 46.088 170.059 44.936C168.651 43.784 167.734 42.12 167.307 39.944H188.235V37.384ZM167.371 34.376C167.712 32.3707 168.459 30.856 169.611 29.832C170.763 28.7653 172.192 28.232 173.899 28.232C175.606 28.232 176.992 28.744 178.059 29.768C179.168 30.792 179.936 32.328 180.363 34.376H167.371Z" fill="#006B72"/>
</g>
<path d="M78.072 60.986C78.8467 60.986 79.402 61.196 79.738 61.616C80.0833 62.0267 80.256 62.6427 80.256 63.464V68H78.436V63.828C78.436 63.3893 78.366 63.058 78.226 62.834C78.0953 62.61 77.8853 62.498 77.596 62.498C77.316 62.498 77.0593 62.5633 76.826 62.694C76.5927 62.8247 76.294 63.0207 75.93 63.282V63.464V68H74.11V63.828C74.11 63.3893 74.04 63.058 73.9 62.834C73.7693 62.61 73.5593 62.498 73.27 62.498C72.99 62.498 72.7333 62.5633 72.5 62.694C72.2667 62.8247 71.9633 63.0253 71.59 63.296V68H69.77V61.21H70.96L71.268 61.938C71.688 61.6393 72.122 61.406 72.57 61.238C73.018 61.07 73.41 60.986 73.746 60.986C74.67 60.986 75.2953 61.294 75.622 61.91C76.042 61.6207 76.4713 61.3967 76.91 61.238C77.3487 61.07 77.736 60.986 78.072 60.986ZM88.2986 64.584C88.2986 65.3027 88.1492 65.9327 87.8506 66.474C87.5519 67.0153 87.1272 67.4353 86.5766 67.734C86.0352 68.0233 85.4006 68.168 84.6726 68.168C83.9446 68.168 83.3052 68.0233 82.7546 67.734C82.2132 67.4447 81.7932 67.034 81.4946 66.502C81.1959 65.9607 81.0466 65.3307 81.0466 64.612C81.0466 63.8933 81.1959 63.2633 81.4946 62.722C81.7932 62.1807 82.2132 61.7653 82.7546 61.476C83.3052 61.1773 83.9446 61.028 84.6726 61.028C85.4006 61.028 86.0352 61.1727 86.5766 61.462C87.1272 61.7513 87.5519 62.1667 87.8506 62.708C88.1492 63.24 88.2986 63.8653 88.2986 64.584ZM84.6726 66.614C85.1766 66.614 85.5919 66.4227 85.9186 66.04C86.2546 65.6573 86.4226 65.172 86.4226 64.584C86.4226 63.996 86.2592 63.5153 85.9326 63.142C85.6059 62.7687 85.1859 62.582 84.6726 62.582C84.1686 62.582 83.7486 62.7733 83.4126 63.156C83.0859 63.5387 82.9226 64.024 82.9226 64.612C82.9226 65.2 83.0859 65.6807 83.4126 66.054C83.7392 66.4273 84.1592 66.614 84.6726 66.614ZM90.9636 63.296C91.2996 63.0533 91.6076 62.862 91.8876 62.722C92.1676 62.5727 92.4663 62.498 92.7836 62.498C93.0916 62.498 93.3296 62.6147 93.4976 62.848C93.6749 63.0813 93.7636 63.408 93.7636 63.828V68H95.5836V63.744C95.5836 62.876 95.4109 62.1993 95.0656 61.714C94.7203 61.2287 94.1183 60.986 93.2596 60.986C92.8863 60.986 92.4616 61.07 91.9856 61.238C91.5096 61.406 91.0616 61.6393 90.6416 61.938L90.3336 61.21H89.1436V68H90.9636V63.296ZM97.6893 60.244C97.9786 60.244 98.2213 60.146 98.4173 59.95C98.6226 59.754 98.7253 59.5113 98.7253 59.222C98.7253 58.9327 98.6226 58.69 98.4173 58.494C98.2213 58.298 97.9786 58.2 97.6893 58.2C97.4093 58.2 97.1713 58.298 96.9753 58.494C96.7793 58.69 96.6813 58.9327 96.6813 59.222C96.6813 59.5113 96.7793 59.754 96.9753 59.95C97.1713 60.146 97.4093 60.244 97.6893 60.244ZM98.6133 68V61.21H96.7933V68H98.6133ZM101.963 61.224V59.292L100.157 59.614V61.224H99.2466V62.624H100.157V65.83C100.157 66.6047 100.395 67.2067 100.871 67.636C101.347 68.0653 102.009 68.28 102.859 68.28C103.083 68.28 103.33 68.238 103.601 68.154C103.881 68.07 104.091 67.972 104.231 67.86L103.699 66.544C103.447 66.6653 103.199 66.726 102.957 66.726C102.639 66.726 102.392 66.614 102.215 66.39C102.047 66.166 101.963 65.872 101.963 65.508V62.624H103.755L103.195 61.224H101.963ZM111.761 64.584C111.761 65.3027 111.611 65.9327 111.313 66.474C111.014 67.0153 110.589 67.4353 110.039 67.734C109.497 68.0233 108.863 68.168 108.135 68.168C107.407 68.168 106.767 68.0233 106.217 67.734C105.675 67.4447 105.255 67.034 104.957 66.502C104.658 65.9607 104.509 65.3307 104.509 64.612C104.509 63.8933 104.658 63.2633 104.957 62.722C105.255 62.1807 105.675 61.7653 106.217 61.476C106.767 61.1773 107.407 61.028 108.135 61.028C108.863 61.028 109.497 61.1727 110.039 61.462C110.589 61.7513 111.014 62.1667 111.313 62.708C111.611 63.24 111.761 63.8653 111.761 64.584ZM108.135 66.614C108.639 66.614 109.054 66.4227 109.381 66.04C109.717 65.6573 109.885 65.172 109.885 64.584C109.885 63.996 109.721 63.5153 109.395 63.142C109.068 62.7687 108.648 62.582 108.135 62.582C107.631 62.582 107.211 62.7733 106.875 63.156C106.548 63.5387 106.385 64.024 106.385 64.612C106.385 65.2 106.548 65.6807 106.875 66.054C107.201 66.4273 107.621 66.614 108.135 66.614ZM114.426 63.856C114.818 63.5107 115.238 63.226 115.686 63.002C116.143 62.778 116.526 62.666 116.834 62.666L116.47 61.21C116.134 61.21 115.746 61.3267 115.308 61.56C114.869 61.7933 114.486 62.0547 114.16 62.344L113.558 61.21H112.606V68H114.426V63.856ZM118.362 60.244C118.652 60.244 118.894 60.146 119.09 59.95C119.296 59.754 119.398 59.5113 119.398 59.222C119.398 58.9327 119.296 58.69 119.09 58.494C118.894 58.298 118.652 58.2 118.362 58.2C118.082 58.2 117.844 58.298 117.648 58.494C117.452 58.69 117.354 58.9327 117.354 59.222C117.354 59.5113 117.452 59.754 117.648 59.95C117.844 60.146 118.082 60.244 118.362 60.244ZM119.286 68V61.21H117.466V68H119.286ZM122.37 63.296C122.706 63.0533 123.014 62.862 123.294 62.722C123.574 62.5727 123.872 62.498 124.19 62.498C124.498 62.498 124.736 62.6147 124.904 62.848C125.081 63.0813 125.17 63.408 125.17 63.828V68H126.99V63.744C126.99 62.876 126.817 62.1993 126.472 61.714C126.126 61.2287 125.524 60.986 124.666 60.986C124.292 60.986 123.868 61.07 123.392 61.238C122.916 61.406 122.468 61.6393 122.048 61.938L121.74 61.21H120.55V68H122.37V63.296ZM134.527 61.21V68.322C134.527 69.2553 134.201 69.9693 133.547 70.464C132.894 70.968 132.017 71.22 130.915 71.22C130.57 71.22 130.103 71.1453 129.515 70.996C128.927 70.856 128.47 70.674 128.143 70.45L128.689 69.162C129.109 69.3673 129.492 69.5167 129.837 69.61C130.183 69.7033 130.528 69.7547 130.873 69.764C131.424 69.7547 131.863 69.6193 132.189 69.358C132.525 69.0967 132.693 68.7467 132.693 68.308V67.734C132.227 68.0233 131.727 68.168 131.195 68.168C130.141 68.168 129.305 67.8507 128.689 67.216C128.083 66.572 127.779 65.704 127.779 64.612C127.779 63.9027 127.915 63.2773 128.185 62.736C128.465 62.1947 128.867 61.7747 129.389 61.476C129.912 61.1773 130.533 61.028 131.251 61.028C131.559 61.028 131.886 61.1027 132.231 61.252C132.586 61.4013 132.899 61.5927 133.169 61.826L133.575 61.21H134.527ZM131.265 66.614C131.508 66.614 131.741 66.5673 131.965 66.474C132.199 66.3807 132.441 66.2407 132.693 66.054V63.156C132.451 62.9507 132.217 62.806 131.993 62.722C131.769 62.6287 131.527 62.582 131.265 62.582C130.771 62.582 130.379 62.7733 130.089 63.156C129.8 63.5293 129.655 64.0147 129.655 64.612C129.655 65.2093 129.795 65.6947 130.075 66.068C130.365 66.432 130.761 66.614 131.265 66.614ZM141.905 61.028C142.959 61.028 143.79 61.35 144.397 61.994C145.013 62.6287 145.321 63.492 145.321 64.584C145.321 65.2933 145.181 65.9187 144.901 66.46C144.63 67.0013 144.233 67.4213 143.711 67.72C143.188 68.0187 142.567 68.168 141.849 68.168C141.466 68.168 141.06 68.0607 140.631 67.846V70.926L138.825 71.066V61.21H139.749L140.113 61.672C140.663 61.2427 141.261 61.028 141.905 61.028ZM141.835 66.614C142.329 66.614 142.721 66.4273 143.011 66.054C143.3 65.6713 143.445 65.1813 143.445 64.584C143.445 63.9867 143.3 63.506 143.011 63.142C142.731 62.7687 142.339 62.582 141.835 62.582C141.443 62.582 141.041 62.7173 140.631 62.988V66.222C141.013 66.4833 141.415 66.614 141.835 66.614ZM148.104 68V58.116L146.298 58.27V68H148.104ZM150.159 63.156C150.42 63.0347 150.738 62.932 151.111 62.848C151.484 62.7547 151.825 62.708 152.133 62.708C152.469 62.708 152.73 62.806 152.917 63.002C153.113 63.1887 153.216 63.4547 153.225 63.8H151.895C151.111 63.8 150.486 63.9913 150.019 64.374C149.552 64.7473 149.319 65.2793 149.319 65.97C149.319 66.642 149.524 67.1787 149.935 67.58C150.346 67.972 150.957 68.168 151.769 68.168C152.394 68.168 152.992 67.8693 153.561 67.272L153.869 68H155.059V63.534C155.059 63.058 154.924 62.6287 154.653 62.246C154.392 61.8633 154.037 61.5647 153.589 61.35C153.141 61.1353 152.646 61.028 152.105 61.028C151.788 61.028 151.363 61.0933 150.831 61.224C150.299 61.3453 149.912 61.4853 149.669 61.644L150.159 63.156ZM150.873 65.97C150.873 65.7087 150.962 65.4847 151.139 65.298C151.326 65.1113 151.568 65.018 151.867 65.018H153.239V66.054C152.782 66.502 152.282 66.726 151.741 66.726C151.489 66.726 151.279 66.6513 151.111 66.502C150.952 66.3527 150.873 66.1753 150.873 65.97ZM158.348 61.224V59.292L156.542 59.614V61.224H155.632V62.624H156.542V65.83C156.542 66.6047 156.78 67.2067 157.256 67.636C157.732 68.0653 158.395 68.28 159.244 68.28C159.468 68.28 159.715 68.238 159.986 68.154C160.266 68.07 160.476 67.972 160.616 67.86L160.084 66.544C159.832 66.6653 159.585 66.726 159.342 66.726C159.025 66.726 158.777 66.614 158.6 66.39C158.432 66.166 158.348 65.872 158.348 65.508V62.624H160.14L159.58 61.224H158.348ZM161.762 62.624V68H163.582V62.624H165.444L164.87 61.224H163.582V60.958C163.582 60.5847 163.657 60.2907 163.806 60.076C163.955 59.852 164.184 59.74 164.492 59.74C164.688 59.74 164.94 59.8007 165.248 59.922L165.766 58.606C165.617 58.4847 165.407 58.382 165.136 58.298C164.865 58.214 164.623 58.172 164.408 58.172C163.577 58.172 162.929 58.396 162.462 58.844C161.995 59.292 161.762 59.9127 161.762 60.706V61.224H160.712V62.624H161.762ZM173.089 64.584C173.089 65.3027 172.939 65.9327 172.641 66.474C172.342 67.0153 171.917 67.4353 171.367 67.734C170.825 68.0233 170.191 68.168 169.463 68.168C168.735 68.168 168.095 68.0233 167.545 67.734C167.003 67.4447 166.583 67.034 166.285 66.502C165.986 65.9607 165.837 65.3307 165.837 64.612C165.837 63.8933 165.986 63.2633 166.285 62.722C166.583 62.1807 167.003 61.7653 167.545 61.476C168.095 61.1773 168.735 61.028 169.463 61.028C170.191 61.028 170.825 61.1727 171.367 61.462C171.917 61.7513 172.342 62.1667 172.641 62.708C172.939 63.24 173.089 63.8653 173.089 64.584ZM169.463 66.614C169.967 66.614 170.382 66.4227 170.709 66.04C171.045 65.6573 171.213 65.172 171.213 64.584C171.213 63.996 171.049 63.5153 170.723 63.142C170.396 62.7687 169.976 62.582 169.463 62.582C168.959 62.582 168.539 62.7733 168.203 63.156C167.876 63.5387 167.713 64.024 167.713 64.612C167.713 65.2 167.876 65.6807 168.203 66.054C168.529 66.4273 168.949 66.614 169.463 66.614ZM175.754 63.856C176.146 63.5107 176.566 63.226 177.014 63.002C177.471 62.778 177.854 62.666 178.162 62.666L177.798 61.21C177.462 61.21 177.074 61.3267 176.636 61.56C176.197 61.7933 175.814 62.0547 175.488 62.344L174.886 61.21H173.934V68H175.754V63.856ZM187.096 60.986C187.871 60.986 188.426 61.196 188.762 61.616C189.108 62.0267 189.28 62.6427 189.28 63.464V68H187.46V63.828C187.46 63.3893 187.39 63.058 187.25 62.834C187.12 62.61 186.91 62.498 186.62 62.498C186.34 62.498 186.084 62.5633 185.85 62.694C185.617 62.8247 185.318 63.0207 184.954 63.282V63.464V68H183.134V63.828C183.134 63.3893 183.064 63.058 182.924 62.834C182.794 62.61 182.584 62.498 182.294 62.498C182.014 62.498 181.758 62.5633 181.524 62.694C181.291 62.8247 180.988 63.0253 180.614 63.296V68H178.794V61.21H179.984L180.292 61.938C180.712 61.6393 181.146 61.406 181.594 61.238C182.042 61.07 182.434 60.986 182.77 60.986C183.694 60.986 184.32 61.294 184.646 61.91C185.066 61.6207 185.496 61.3967 185.934 61.238C186.373 61.07 186.76 60.986 187.096 60.986Z" fill="#006B72"/>
<defs>
<filter id="filter0_d" x="195" y="5" width="73" height="73" filterUnits="userSpaceOnUse" color-interpolation-filters="sRGB">
<feFlood flood-opacity="0" result="BackgroundImageFix"/>
<feColorMatrix in="SourceAlpha" type="matrix" values="0 0 0 0 0 0 0 0 0 0 0 0 0 0 0 0 0 0 127 0"/>
<feOffset dy="4"/>
<feGaussianBlur stdDeviation="2"/>
<feColorMatrix type="matrix" values="0 0 0 0 0 0 0 0 0 0 0 0 0 0 0 0 0 0 0.25 0"/>
<feBlend mode="normal" in2="BackgroundImageFix" result="effect1_dropShadow"/>
<feBlend mode="normal" in="SourceGraphic" in2="effect1_dropShadow" result="shape"/>
</filter>
<filter id="filter1_d" x="0.00805664" y="8.19995" width="192.227" height="66.816" filterUnits="userSpaceOnUse" color-interpolation-filters="sRGB">
<feFlood flood-opacity="0" result="BackgroundImageFix"/>
<feColorMatrix in="SourceAlpha" type="matrix" values="0 0 0 0 0 0 0 0 0 0 0 0 0 0 0 0 0 0 127 0"/>
<feOffset dy="4"/>
<feGaussianBlur stdDeviation="2"/>
<feColorMatrix type="matrix" values="0 0 0 0 0 0 0 0 0 0 0 0 0 0 0 0 0 0 0.25 0"/>
<feBlend mode="normal" in2="BackgroundImageFix" result="effect1_dropShadow"/>
<feBlend mode="normal" in="SourceGraphic" in2="effect1_dropShadow" result="shape"/>
</filter>
<linearGradient id="paint0_linear" x1="252.303" y1="27.2833" x2="227.374" y2="50.6391" gradientUnits="userSpaceOnUse">
<stop stop-color="white"/>
<stop offset="1" stop-color="white" stop-opacity="0"/>
</linearGradient>
<linearGradient id="paint1_linear" x1="255.832" y1="31.097" x2="230.903" y2="54.4529" gradientUnits="userSpaceOnUse">
<stop stop-color="white"/>
<stop offset="1" stop-color="white" stop-opacity="0"/>
</linearGradient>
<linearGradient id="paint2_linear" x1="231.672" y1="43.1804" x2="231.417" y2="57.7933" gradientUnits="userSpaceOnUse">
<stop stop-color="white"/>
<stop offset="1" stop-color="white" stop-opacity="0"/>
</linearGradient>
<linearGradient id="paint3_linear" x1="233.01" y1="43.3635" x2="232.683" y2="55.5194" gradientUnits="userSpaceOnUse">
<stop stop-color="white"/>
<stop offset="1" stop-color="white" stop-opacity="0"/>
</linearGradient>
<linearGradient id="paint4_linear" x1="226.905" y1="29.376" x2="212.101" y2="43.2463" gradientUnits="userSpaceOnUse">
<stop stop-color="white"/>
<stop offset="1" stop-color="white" stop-opacity="0"/>
</linearGradient>
<linearGradient id="paint5_linear" x1="227.556" y1="29.2624" x2="215.342" y2="41.5428" gradientUnits="userSpaceOnUse">
<stop stop-color="white"/>
<stop offset="1" stop-color="white" stop-opacity="0"/>
</linearGradient>
<linearGradient id="paint6_linear" x1="227.475" y1="28.376" x2="210.949" y2="43.8594" gradientUnits="userSpaceOnUse">
<stop stop-color="white"/>
<stop offset="1" stop-color="white" stop-opacity="0"/>
</linearGradient>
<linearGradient id="paint7_linear" x1="228.554" y1="29.3285" x2="214.95" y2="43.0623" gradientUnits="userSpaceOnUse">
<stop stop-color="white"/>
<stop offset="1" stop-color="white" stop-opacity="0"/>
</linearGradient>
</defs>
</svg>
