<svg width="252" height="145" viewBox="0 0 252 145" fill="none" xmlns="http://www.w3.org/2000/svg">
<path d="M173.983 106.29L106.493 109.032L106.531 102.92L173.983 106.29Z" fill="#FF0000"/>
<ellipse cx="117.787" cy="106" rx="6" ry="6.95299" transform="rotate(90 117.787 106)" fill="#EF1515"/>
<path d="M250.594 143.776C250.594 125.151 247.366 106.708 241.094 89.4999C234.823 72.2922 225.63 56.6569 214.042 43.4868C202.453 30.3166 188.696 19.8694 173.555 12.7418C158.414 5.6141 142.186 1.94555 125.797 1.94555C109.408 1.94555 93.1803 5.61411 78.0392 12.7418C62.8982 19.8694 49.1407 30.3166 37.5522 43.4868C25.9637 56.6569 16.7712 72.2922 10.4996 89.4999C4.22797 106.708 0.999999 125.151 1 143.776H38.4391C38.4391 130.738 40.6987 117.828 45.0888 105.783C49.479 93.7374 55.9137 82.7927 64.0256 73.5736C72.1376 64.3544 81.7678 57.0414 92.3666 52.0521C102.965 47.0627 114.325 44.4947 125.797 44.4947C137.269 44.4947 148.629 47.0627 159.227 52.0521C169.826 57.0414 179.456 64.3544 187.568 73.5736C195.68 82.7927 202.115 93.7374 206.505 105.783C210.895 117.828 213.155 130.738 213.155 143.776H250.594Z" fill="#C4C4C4" fill-opacity="0.1" stroke="#AAAAAA"/>
<path d="M64.6808 18.9652C45.389 31.2802 29.325 49.2031 18.135 70.8971C6.945 92.5912 1.03133 117.276 1 142.423L38.0886 142.483C38.1106 124.81 42.2668 107.461 50.1312 92.2138C57.9956 76.967 69.2855 64.3707 82.844 55.7156L64.6808 18.9652Z" fill="#FAFF1D" fill-opacity="0.1"/>
<path d="M18.5794 71.1264C29.6407 49.6817 45.4766 31.9426 64.4803 19.6879L82.1977 55.5363C68.7278 64.234 57.5159 76.8063 49.6868 91.9846C41.859 107.16 37.6894 124.405 37.5903 141.982L1.5014 141.924C1.60984 117.027 7.50108 92.6039 18.5794 71.1264Z" stroke="#AAAAAA" stroke-opacity="0.2"/>
<path d="M235.458 77.1655C245.259 97.707 250.427 120.691 250.499 144.059H214.41C214.338 127.563 210.68 111.338 203.757 96.8275C196.831 82.312 186.852 69.9631 174.706 60.8823L194.439 26.4303C211.578 39.23 225.672 56.6572 235.458 77.1655Z" fill="#FF1D1D" stroke="#AAAAAA"/>
<path d="M86.0078 123.905L90.1914 134.346L94.375 123.905H96.5635V136.702H94.876V131.719L95.0342 126.34L90.833 136.702H89.541L85.3486 126.366L85.5156 131.719V136.702H83.8281V123.905H86.0078ZM105.159 136.702C105.065 136.514 104.989 136.18 104.931 135.7C104.175 136.485 103.272 136.878 102.224 136.878C101.286 136.878 100.516 136.614 99.9121 136.087C99.3145 135.554 99.0156 134.88 99.0156 134.065C99.0156 133.075 99.3906 132.307 100.141 131.763C100.896 131.212 101.957 130.936 103.322 130.936H104.904V130.189C104.904 129.621 104.734 129.17 104.395 128.836C104.055 128.496 103.554 128.326 102.892 128.326C102.312 128.326 101.825 128.472 101.433 128.765C101.04 129.058 100.844 129.413 100.844 129.829H99.209C99.209 129.354 99.376 128.897 99.71 128.458C100.05 128.013 100.507 127.661 101.081 127.403C101.661 127.145 102.297 127.016 102.988 127.016C104.084 127.016 104.942 127.292 105.563 127.843C106.185 128.388 106.507 129.14 106.53 130.101V134.478C106.53 135.351 106.642 136.046 106.864 136.561V136.702H105.159ZM102.461 135.463C102.971 135.463 103.454 135.331 103.911 135.067C104.368 134.804 104.699 134.461 104.904 134.039V132.088H103.63C101.638 132.088 100.642 132.671 100.642 133.837C100.642 134.346 100.812 134.745 101.151 135.032C101.491 135.319 101.928 135.463 102.461 135.463ZM112.27 130.664L114.379 127.192H116.277L113.166 131.894L116.374 136.702H114.493L112.296 133.142L110.099 136.702H108.209L111.417 131.894L108.306 127.192H110.187L112.27 130.664ZM119.775 136.702H118.149V127.192H119.775V136.702ZM118.018 124.67C118.018 124.406 118.097 124.183 118.255 124.002C118.419 123.82 118.659 123.729 118.976 123.729C119.292 123.729 119.532 123.82 119.696 124.002C119.86 124.183 119.942 124.406 119.942 124.67C119.942 124.933 119.86 125.153 119.696 125.329C119.532 125.505 119.292 125.593 118.976 125.593C118.659 125.593 118.419 125.505 118.255 125.329C118.097 125.153 118.018 124.933 118.018 124.67ZM123.915 127.192L123.959 128.247C124.656 127.427 125.597 127.016 126.78 127.016C128.11 127.016 129.016 127.526 129.496 128.546C129.812 128.089 130.223 127.72 130.727 127.438C131.236 127.157 131.837 127.016 132.528 127.016C134.614 127.016 135.675 128.121 135.71 130.33V136.702H134.084V130.427C134.084 129.747 133.929 129.24 133.618 128.906C133.308 128.566 132.786 128.396 132.054 128.396C131.45 128.396 130.949 128.578 130.551 128.941C130.152 129.299 129.921 129.782 129.856 130.391V136.702H128.222V130.471C128.222 129.088 127.545 128.396 126.191 128.396C125.125 128.396 124.396 128.85 124.003 129.759V136.702H122.377V127.192H123.915ZM144.042 135.762C143.409 136.506 142.48 136.878 141.256 136.878C140.242 136.878 139.469 136.585 138.936 135.999C138.408 135.407 138.142 134.534 138.136 133.38V127.192H139.762V133.336C139.762 134.777 140.348 135.498 141.52 135.498C142.762 135.498 143.588 135.035 143.998 134.109V127.192H145.624V136.702H144.077L144.042 135.762ZM149.632 127.192L149.676 128.247C150.373 127.427 151.313 127.016 152.497 127.016C153.827 127.016 154.732 127.526 155.213 128.546C155.529 128.089 155.939 127.72 156.443 127.438C156.953 127.157 157.554 127.016 158.245 127.016C160.331 127.016 161.392 128.121 161.427 130.33V136.702H159.801V130.427C159.801 129.747 159.646 129.24 159.335 128.906C159.024 128.566 158.503 128.396 157.771 128.396C157.167 128.396 156.666 128.578 156.268 128.941C155.869 129.299 155.638 129.782 155.573 130.391V136.702H153.938V130.471C153.938 129.088 153.262 128.396 151.908 128.396C150.842 128.396 150.112 128.85 149.72 129.759V136.702H148.094V127.192H149.632Z" fill="black"/>
<line y1="-1.5" x2="40.3239" y2="-1.5" transform="matrix(0.453914 0.891046 -0.835389 0.549659 64.2305 19.9107)" stroke="#DDDDDD" stroke-width="3"/>
<line y1="-1.5" x2="40.4599" y2="-1.5" transform="matrix(-0.426178 0.904639 -0.85428 -0.519813 191.295 22.7474)" stroke="#DDDDDD" stroke-width="3"/>
<path d="M132.439 1.62646C154.952 2.79457 172.381 11.1542 191.119 25.3901L175.277 59.2273C162.021 49.2638 146.621 43.56 130.709 42.7343C114.777 41.9077 98.9437 46.0025 84.8896 54.5714L67.6513 18.4692C87.5191 6.27943 109.915 0.457771 132.439 1.62646Z" fill="#1DFF41" fill-opacity="0.1" stroke="#AAAAAA"/>
</svg>
