<svg width="251" height="145" viewBox="0 0 251 145" fill="none" xmlns="http://www.w3.org/2000/svg">
<path d="M240.624 89.8013C246.82 107.02 250.037 125.465 250.093 144.102H213.654C213.597 131.011 211.33 118.055 206.976 105.954C202.566 93.699 196.1 82.5599 187.946 73.174C179.791 63.7879 170.107 56.3381 159.443 51.2538C148.778 46.1693 137.345 43.5511 125.797 43.5511C114.249 43.5511 102.816 46.1693 92.1514 51.2538C81.4874 56.3381 71.8027 63.7879 63.6482 73.174C55.4938 82.5599 49.0284 93.699 44.6183 105.954C40.2637 118.055 37.9965 131.011 37.9402 144.102H1.50076C1.55728 125.465 4.77374 107.02 10.9701 89.8013C17.2218 72.4288 26.3836 56.6479 37.9296 43.3582C49.4755 30.0685 63.1786 19.531 78.2544 12.3433C93.3299 5.15572 109.485 1.45764 125.797 1.45764C142.109 1.45764 158.264 5.15571 173.34 12.3433C188.415 19.531 202.118 30.0685 213.664 43.3582C225.21 56.6479 234.372 72.4288 240.624 89.8013Z" fill="#C4C4C4" fill-opacity="0.1" stroke="#AAAAAA"/>
<path d="M235.457 76.0668C245.259 96.8743 250.427 120.156 250.499 143.827H214.41C214.339 127.12 210.681 110.687 203.758 95.9903C196.831 81.2882 186.851 68.7803 174.703 59.583L194.44 24.6831C211.577 37.6464 225.671 55.2962 235.457 76.0668Z" fill="#FF1D1D" fill-opacity="0.1" stroke="#AAAAAA"/>
<line y1="-1.5" x2="40.7339" y2="-1.5" transform="matrix(0.449344 0.893359 -0.832159 0.554538 62.5665 22.9832)" stroke="#DDDDDD" stroke-width="3"/>
<line y1="-1.5" x2="41.6739" y2="-1.5" transform="matrix(-0.499102 0.866544 -0.794981 -0.606635 194.019 23.9408)" stroke="#DDDDDD" stroke-width="3"/>
<path d="M102.333 134.492H96.9715L95.7674 137.832H94.0272L98.9139 125.035H100.39L105.286 137.832H103.554L102.333 134.492ZM97.4813 133.103H101.832L99.6522 127.118L97.4813 133.103ZM109.452 135.626L111.807 128.322H113.469L110.058 137.832H108.819L105.374 128.322H107.035L109.452 135.626ZM118.856 138.008C117.567 138.008 116.518 137.586 115.71 136.742C114.901 135.892 114.497 134.759 114.497 133.341V133.042C114.497 132.098 114.676 131.258 115.033 130.519C115.396 129.775 115.9 129.195 116.545 128.779C117.195 128.357 117.898 128.146 118.654 128.146C119.89 128.146 120.851 128.553 121.537 129.368C122.222 130.182 122.565 131.348 122.565 132.866V133.543H116.123C116.146 134.48 116.419 135.239 116.94 135.819C117.468 136.393 118.136 136.68 118.944 136.68C119.518 136.68 120.005 136.563 120.403 136.329C120.802 136.094 121.15 135.784 121.449 135.397L122.442 136.171C121.645 137.395 120.45 138.008 118.856 138.008ZM118.654 129.482C117.998 129.482 117.447 129.722 117.002 130.203C116.556 130.677 116.281 131.345 116.176 132.207H120.939V132.084C120.892 131.258 120.67 130.619 120.271 130.168C119.873 129.711 119.334 129.482 118.654 129.482ZM129.052 129.781C128.805 129.74 128.539 129.719 128.252 129.719C127.185 129.719 126.462 130.174 126.081 131.082V137.832H124.455V128.322H126.037L126.063 129.421C126.596 128.571 127.352 128.146 128.331 128.146C128.647 128.146 128.888 128.187 129.052 128.269V129.781ZM136.074 137.832C135.98 137.644 135.904 137.31 135.846 136.83C135.09 137.615 134.187 138.008 133.138 138.008C132.201 138.008 131.43 137.744 130.827 137.217C130.229 136.683 129.93 136.01 129.93 135.195C129.93 134.205 130.305 133.437 131.055 132.892C131.811 132.342 132.872 132.066 134.237 132.066H135.819V131.319C135.819 130.751 135.649 130.3 135.309 129.966C134.97 129.626 134.469 129.456 133.806 129.456C133.226 129.456 132.74 129.602 132.347 129.895C131.955 130.188 131.759 130.543 131.759 130.959H130.124C130.124 130.484 130.291 130.027 130.625 129.588C130.965 129.142 131.422 128.791 131.996 128.533C132.576 128.275 133.212 128.146 133.903 128.146C134.999 128.146 135.857 128.422 136.478 128.972C137.099 129.517 137.422 130.27 137.445 131.231V135.608C137.445 136.481 137.556 137.176 137.779 137.691V137.832H136.074ZM133.376 136.593C133.886 136.593 134.369 136.461 134.826 136.197C135.283 135.933 135.614 135.591 135.819 135.169V133.218H134.545C132.553 133.218 131.556 133.801 131.556 134.967C131.556 135.476 131.726 135.875 132.066 136.162C132.406 136.449 132.843 136.593 133.376 136.593ZM139.607 132.998C139.607 131.515 139.95 130.338 140.636 129.465C141.321 128.586 142.229 128.146 143.36 128.146C144.52 128.146 145.426 128.556 146.076 129.377L146.155 128.322H147.64V137.603C147.64 138.834 147.274 139.803 146.542 140.512C145.815 141.221 144.837 141.576 143.606 141.576C142.921 141.576 142.25 141.429 141.594 141.136C140.937 140.843 140.436 140.442 140.091 139.932L140.934 138.957C141.632 139.818 142.484 140.249 143.492 140.249C144.283 140.249 144.898 140.026 145.338 139.581C145.783 139.135 146.006 138.509 146.006 137.7V136.883C145.355 137.633 144.468 138.008 143.343 138.008C142.229 138.008 141.327 137.559 140.636 136.663C139.95 135.766 139.607 134.545 139.607 132.998ZM141.242 133.182C141.242 134.255 141.462 135.098 141.901 135.714C142.341 136.323 142.956 136.628 143.747 136.628C144.772 136.628 145.525 136.162 146.006 135.23V130.888C145.508 129.98 144.761 129.526 143.764 129.526C142.973 129.526 142.355 129.834 141.91 130.449C141.465 131.064 141.242 131.975 141.242 133.182ZM154.048 138.008C152.759 138.008 151.71 137.586 150.901 136.742C150.093 135.892 149.688 134.759 149.688 133.341V133.042C149.688 132.098 149.867 131.258 150.224 130.519C150.588 129.775 151.092 129.195 151.736 128.779C152.387 128.357 153.09 128.146 153.846 128.146C155.082 128.146 156.043 128.553 156.728 129.368C157.414 130.182 157.757 131.348 157.757 132.866V133.543H151.314C151.338 134.48 151.61 135.239 152.132 135.819C152.659 136.393 153.327 136.68 154.136 136.68C154.71 136.68 155.196 136.563 155.595 136.329C155.993 136.094 156.342 135.784 156.64 135.397L157.634 136.171C156.837 137.395 155.641 138.008 154.048 138.008ZM153.846 129.482C153.189 129.482 152.638 129.722 152.193 130.203C151.748 130.677 151.472 131.345 151.367 132.207H156.131V132.084C156.084 131.258 155.861 130.619 155.463 130.168C155.064 129.711 154.525 129.482 153.846 129.482Z" fill="black"/>
<path d="M126.166 53.0218L128.905 120.968L122.793 120.93L126.166 53.0218Z" fill="#FF0000"/>
<ellipse cx="125.875" cy="109.598" rx="6" ry="7" fill="#EF1515"/>
<path d="M129.5 1.59887C152.038 2.56399 173.926 10.5738 192.817 24.7737L172.934 59.5636C159.573 49.5817 144.103 43.9428 128.164 43.2603C112.226 42.5778 96.4323 46.8781 82.4615 55.6913L64.8741 19.288C84.6253 6.74785 106.965 0.633875 129.5 1.59887Z" fill="#01FF2A" stroke="#AAAAAA"/>
<path d="M64.6808 19.1526C45.389 31.6252 29.325 49.7773 18.135 71.7489C6.945 93.7205 1.03133 118.721 1 144.19L38.0885 144.25C38.1106 126.351 42.2667 108.78 50.1312 93.3382C57.9956 77.8964 69.2855 65.1389 82.844 56.3731L64.6808 19.1526Z" fill="#FAFF1D" fill-opacity="0.1" stroke="#AAAAAA"/>
</svg>
