<svg width="252" height="146" viewBox="0 0 252 146" fill="none" xmlns="http://www.w3.org/2000/svg">
<path d="M69.0218 105.71L142.895 102.998L142.857 109.11L69.0218 105.71Z" fill="#FF0000"/>
<ellipse cx="130.537" cy="106" rx="6" ry="7.61078" transform="rotate(-90 130.537 106)" fill="#EF1515"/>
<path d="M240.827 90.6186C247.003 107.793 250.209 126.191 250.265 144.78H213.95C213.894 131.723 211.634 118.799 207.294 106.729C202.898 94.5057 196.454 83.3947 188.327 74.0325C180.199 64.67 170.547 57.239 159.918 52.1675C149.289 47.0958 137.893 44.4841 126.383 44.4841C114.873 44.4841 103.477 47.0958 92.8481 52.1675C82.2193 57.239 72.5665 64.6701 64.439 74.0325C56.3115 83.3947 49.8675 94.5057 45.472 106.73C41.132 118.799 38.8722 131.723 38.816 144.78H2.50076C2.55724 126.191 5.76301 107.793 11.9386 90.6186C18.1695 73.2903 27.3009 57.5496 38.8085 44.2937C50.316 31.0379 63.9734 20.5272 78.999 13.3578C94.0242 6.18864 110.125 2.50001 126.383 2.50001C142.641 2.50001 158.742 6.18863 173.767 13.3578C188.792 20.5272 202.45 31.0379 213.957 44.2936C225.465 57.5495 234.596 73.2903 240.827 90.6186Z" fill="#C4C4C4" fill-opacity="0.1" stroke="#AAAAAA"/>
<path d="M64.4696 19.0593C45.2418 31.5002 29.2311 49.6062 18.0782 71.5221C6.92528 93.4379 1.03123 118.375 1 143.779L37.9655 143.84C37.9875 125.986 42.1299 108.459 49.9682 93.0566C57.8066 77.654 69.059 64.9289 82.5725 56.1853L64.4696 19.0593Z" fill="#FAFF1D" stroke="#AAAAAA" stroke-width="0.959158"/>
<path d="M251 143.916C251 120.062 245.83 96.5858 235.959 75.6165C226.088 54.6472 207.417 35.8934 190.062 22.8801L174.307 59.5223C186.504 68.6681 196.526 81.1771 203.463 95.9145C210.401 110.652 214.034 127.151 214.034 143.916H251Z" fill="#FF1D1D" fill-opacity="0.1" stroke="#AAAAAA" stroke-width="0.959158"/>
<path d="M99.8918 121.798L103.905 131.813L107.917 121.798H110.016V134.073H108.398V129.293L108.55 124.134L104.52 134.073H103.281L99.2596 124.159L99.4197 129.293V134.073H97.8012V121.798H99.8918ZM114.324 134.073H112.765V124.951H114.324V134.073ZM112.638 122.532C112.638 122.279 112.714 122.065 112.866 121.891C113.023 121.717 113.254 121.63 113.557 121.63C113.861 121.63 114.091 121.717 114.248 121.891C114.406 122.065 114.484 122.279 114.484 122.532C114.484 122.785 114.406 122.995 114.248 123.164C114.091 123.333 113.861 123.417 113.557 123.417C113.254 123.417 113.023 123.333 112.866 123.164C112.714 122.995 112.638 122.785 112.638 122.532ZM118.303 124.951L118.354 126.098C119.051 125.221 119.961 124.783 121.085 124.783C123.013 124.783 123.985 125.87 124.002 128.045V134.073H122.442V128.037C122.437 127.379 122.285 126.893 121.987 126.578C121.695 126.264 121.237 126.106 120.613 126.106C120.107 126.106 119.663 126.241 119.281 126.511C118.899 126.781 118.601 127.135 118.387 127.573V134.073H116.828V124.951H118.303ZM128.048 134.073H126.489V124.951H128.048V134.073ZM126.362 122.532C126.362 122.279 126.438 122.065 126.59 121.891C126.747 121.717 126.978 121.63 127.281 121.63C127.585 121.63 127.815 121.717 127.973 121.891C128.13 122.065 128.209 122.279 128.209 122.532C128.209 122.785 128.13 122.995 127.973 123.164C127.815 123.333 127.585 123.417 127.281 123.417C126.978 123.417 126.747 123.333 126.59 123.164C126.438 122.995 126.362 122.785 126.362 122.532ZM132.019 124.951L132.061 125.963C132.73 125.176 133.632 124.783 134.767 124.783C136.043 124.783 136.911 125.272 137.372 126.249C137.676 125.811 138.069 125.457 138.552 125.187C139.041 124.918 139.617 124.783 140.28 124.783C142.281 124.783 143.298 125.842 143.332 127.961V134.073H141.773V128.054C141.773 127.402 141.624 126.915 141.326 126.595C141.028 126.269 140.528 126.106 139.825 126.106C139.246 126.106 138.766 126.28 138.384 126.629C138.002 126.972 137.78 127.435 137.718 128.02V134.073H136.15V128.096C136.15 126.769 135.501 126.106 134.202 126.106C133.179 126.106 132.48 126.542 132.103 127.413V134.073H130.544V124.951H132.019ZM151.324 133.171C150.717 133.884 149.826 134.241 148.652 134.241C147.679 134.241 146.937 133.96 146.426 133.398C145.92 132.831 145.664 131.993 145.659 130.886V124.951H147.218V130.844C147.218 132.226 147.78 132.918 148.904 132.918C150.096 132.918 150.888 132.474 151.282 131.586V124.951H152.841V134.073H151.358L151.324 133.171ZM156.685 124.951L156.728 125.963C157.396 125.176 158.298 124.783 159.434 124.783C160.709 124.783 161.578 125.272 162.039 126.249C162.342 125.811 162.735 125.457 163.219 125.187C163.708 124.918 164.284 124.783 164.947 124.783C166.948 124.783 167.965 125.842 167.999 127.961V134.073H166.439V128.054C166.439 127.402 166.29 126.915 165.992 126.595C165.694 126.269 165.194 126.106 164.492 126.106C163.913 126.106 163.432 126.28 163.05 126.629C162.668 126.972 162.446 127.435 162.384 128.02V134.073H160.816V128.096C160.816 126.769 160.167 126.106 158.869 126.106C157.846 126.106 157.146 126.542 156.77 127.413V134.073H155.21V124.951H156.685Z" fill="black"/>
<line y1="-1.43874" x2="40.6242" y2="-1.43874" transform="matrix(0.449064 0.8935 -0.831958 0.554838 64.8501 19.0593)" stroke="#DDDDDD" stroke-width="2.87748"/>
<line y1="-1.43874" x2="40.7746" y2="-1.43874" transform="matrix(-0.421486 0.906835 -0.85114 -0.524938 190.664 21.9249)" stroke="#DDDDDD" stroke-width="2.87748"/>
<path d="M190.383 24.8801C171.398 10.4934 153.783 2.07226 131.075 1.09908C108.366 0.125889 85.86 6.33746 66 19.0594L83.9653 56.274C97.9231 47.3329 113.741 42.9674 129.7 43.6513C145.66 44.3353 161.152 50.0426 174.495 60.1537L190.383 24.8801Z" fill="#1DFF41" fill-opacity="0.1" stroke="#AAAAAA"/>
</svg>
